<svg width="53" height="49" viewBox="0 0 53 49" fill="none" xmlns="http://www.w3.org/2000/svg">
<rect width="53" height="49" fill="#E6EBF3"/>
<path d="M17.6625 16C16.5 17.1805 15.578 18.5833 14.9494 20.1278C14.3209 21.6723 13.9982 23.3281 14 25C14 28.5134 15.4 31.6959 17.6625 34L19.425 32.2051C18.4932 31.2612 17.7548 30.1383 17.2527 28.9014C16.7506 27.6645 16.4947 26.3384 16.5 25C16.5 22.1867 17.6125 19.628 19.425 17.7949L17.6625 16ZM35.3375 16L33.575 17.7949C34.5058 18.7395 35.2436 19.8626 35.7457 21.0993C36.2477 22.336 36.5041 23.6618 36.5 25C36.5 27.826 35.3875 30.372 33.575 32.2051L35.3375 34C36.5 32.8195 37.422 31.4167 38.0506 29.8722C38.6791 28.3277 39.0018 26.6719 39 25C39 21.4866 37.6 18.3041 35.3375 16ZM21.2 19.6025C20.5023 20.3103 19.9487 21.1514 19.5712 22.0777C19.1936 23.004 18.9995 23.9971 19 25C19 27.1004 19.8375 29.0099 21.2 30.3975L22.9625 28.6025C22.4978 28.1297 22.1293 27.5681 21.8784 26.9499C21.6274 26.3316 21.4988 25.669 21.5 25C21.5 23.587 22.0625 22.314 22.9625 21.3975L21.2 19.6025ZM31.8 19.6025L30.0375 21.3975C30.5022 21.8703 30.8707 22.4319 31.1216 23.0502C31.3726 23.6684 31.5012 24.331 31.5 25C31.5 26.413 30.9375 27.686 30.0375 28.6025L31.8 30.3975C32.4977 29.6897 33.0513 28.8486 33.4288 27.9223C33.8064 26.996 34.0005 26.0029 34 25C34 22.8996 33.1625 20.9901 31.8 19.6025ZM26.5 22.454C25.837 22.454 25.2011 22.7223 24.7322 23.1997C24.2634 23.6772 24 24.3248 24 25C24 25.6752 24.2634 26.3228 24.7322 26.8003C25.2011 27.2777 25.837 27.546 26.5 27.546C27.163 27.546 27.7989 27.2777 28.2678 26.8003C28.7366 26.3228 29 25.6752 29 25C29 24.3248 28.7366 23.6772 28.2678 23.1997C27.7989 22.7223 27.163 22.454 26.5 22.454Z" fill="black"/>
</svg>
