<svg width="53" height="49" viewBox="0 0 53 49" fill="none" xmlns="http://www.w3.org/2000/svg">
<rect width="53" height="49" fill="#E6EBF3"/>
<path d="M21 22.5L23 20.5L21 18.5L19 20.5L21 22.5ZM18 28C17.45 28 16.979 27.804 16.587 27.412C16.195 27.02 15.9993 26.5493 16 26V17C16 16.45 16.196 15.979 16.588 15.587C16.98 15.195 17.4507 14.9993 18 15H34C34.55 15 35.021 15.196 35.413 15.588C35.805 15.98 36.0007 16.4507 36 17V26C36 26.55 35.804 27.021 35.412 27.413C35.02 27.805 34.5493 28.0007 34 28H30.775C30.875 27.6667 30.9417 27.3333 30.975 27C31.0083 26.6667 31.0083 26.3333 30.975 26H34V17H18V26H21.025C20.9917 26.3333 20.9917 26.6667 21.025 27C21.0583 27.3333 21.125 27.6667 21.225 28H18ZM30.5 21C30.9167 21 31.271 20.854 31.563 20.562C31.855 20.27 32.0007 19.916 32 19.5C32 19.0833 31.854 18.729 31.562 18.437C31.27 18.145 30.916 17.9993 30.5 18C30.0833 18 29.729 18.146 29.437 18.438C29.145 18.73 28.9993 19.084 29 19.5C29 19.9167 29.146 20.271 29.438 20.563C29.73 20.855 30.084 21.0007 30.5 21ZM19 37V34.9C19 34.3167 19.1627 33.775 19.488 33.275C19.8133 32.775 20.2423 32.4 20.775 32.15C21.5917 31.7667 22.4417 31.479 23.325 31.287C24.2083 31.095 25.1 30.9993 26 31C26.9 31 27.7917 31.096 28.675 31.288C29.5583 31.48 30.4083 31.7673 31.225 32.15C31.7583 32.4 32.1877 32.775 32.513 33.275C32.8383 33.775 33.0007 34.3167 33 34.9V37H19ZM21 35H31V34.9C31 34.7 30.9417 34.5167 30.825 34.35C30.7083 34.1833 30.5583 34.0583 30.375 33.975C29.675 33.6583 28.9583 33.4167 28.225 33.25C27.4917 33.0833 26.75 33 26 33C25.25 33 24.5083 33.0833 23.775 33.25C23.0417 33.4167 22.325 33.6583 21.625 33.975C21.4417 34.0583 21.2917 34.1833 21.175 34.35C21.0583 34.5167 21 34.7 21 34.9V35ZM26 30C25.0333 30 24.2083 29.6583 23.525 28.975C22.8417 28.2917 22.5 27.4667 22.5 26.5C22.5 25.5333 22.8417 24.7083 23.525 24.025C24.2083 23.3417 25.0333 23 26 23C26.9667 23 27.7917 23.3417 28.475 24.025C29.1583 24.7083 29.5 25.5333 29.5 26.5C29.5 27.4667 29.1583 28.2917 28.475 28.975C27.7917 29.6583 26.9667 30 26 30ZM26 28C26.4167 28 26.771 27.854 27.063 27.562C27.355 27.27 27.5007 26.916 27.5 26.5C27.5 26.0833 27.354 25.729 27.062 25.437C26.77 25.145 26.416 24.9993 26 25C25.5833 25 25.229 25.146 24.937 25.438C24.645 25.73 24.4993 26.084 24.5 26.5C24.5 26.9167 24.646 27.271 24.938 27.563C25.23 27.855 25.584 28.0007 26 28Z" fill="black"/>
</svg>
