<svg width="53" height="49" viewBox="0 0 53 49" fill="none" xmlns="http://www.w3.org/2000/svg">
<rect width="53" height="49" fill="#E6EBF3"/>
<path d="M27.4885 13C21.1405 13 16 18.152 16 24.5C16 30.848 21.1405 36 27.4885 36C33.848 36 39 30.848 39 24.5C39 18.152 33.848 13 27.4885 13ZM27.5 33.7C22.417 33.7 18.3 29.583 18.3 24.5C18.3 19.417 22.417 15.3 27.5 15.3C32.583 15.3 36.7 19.417 36.7 24.5C36.7 29.583 32.583 33.7 27.5 33.7Z" fill="black"/>
<path d="M27.75 19H26V25.5574L32.125 29L33 27.6557L27.75 24.7377V19Z" fill="black"/>
</svg>
