<svg width="189" height="137" viewBox="0 0 386 386" fill="none" xmlns="http://www.w3.org/2000/svg">
<path d="M136.953 129.696C136.953 134.053 135.442 138.275 132.678 141.643C129.914 145.012 126.067 147.317 121.794 148.167C117.52 149.017 113.084 148.359 109.242 146.305C105.399 144.251 102.388 140.928 100.72 136.903C99.053 132.877 98.833 128.398 100.098 124.229C101.363 120.059 104.034 116.457 107.657 114.037C111.28 111.616 115.63 110.526 119.966 110.954C124.302 111.381 128.356 113.298 131.437 116.379C133.189 118.126 134.578 120.201 135.525 122.487C136.471 124.772 136.957 127.222 136.953 129.696Z" fill="#ECE7E1" stroke="black" stroke-width="1.5" stroke-miterlimit="10" stroke-linecap="round"/>
<path d="M129.183 114.468C126.355 113.578 123.355 113.373 120.432 113.87C117.503 114.325 114.758 115.588 112.508 117.518C110.381 119.45 108.945 122.026 108.42 124.852C107.85 127.674 108.077 130.6 109.076 133.301C109.596 134.699 110.383 135.982 111.392 137.08C112.398 138.181 113.649 139.03 115.044 139.558C117.219 140.294 119.579 140.272 121.741 139.496C123.902 138.72 125.737 137.236 126.948 135.285C127.472 134.306 127.792 133.231 127.887 132.125C127.982 131.018 127.85 129.904 127.5 128.851C126.809 126.751 125.257 125.025 122.868 124.643C121.94 124.467 120.98 124.576 120.116 124.958C119.251 125.339 118.523 125.974 118.028 126.778C117.531 127.583 117.245 128.5 117.197 129.445C117.15 130.389 117.341 131.331 117.754 132.182" stroke="#070707" stroke-width="1.5" stroke-miterlimit="10" stroke-linecap="round"/>
<path d="M97.1401 137.821C98.5645 137.173 100.363 136.412 102.498 135.648C104.909 134.787 107.367 134.062 109.859 133.475C113.67 132.6 117.552 132.065 121.458 131.877C129.082 131.47 136.725 132.166 144.151 133.942C146.695 134.549 149.207 135.284 151.678 136.142C154.911 137.266 158.07 138.594 161.135 140.118C158.76 143.597 156.614 147.228 154.712 150.988C149.092 162.092 145.696 174.186 144.715 186.592C144.305 191.809 144.317 197.05 144.749 202.264C144.749 202.264 139.527 203.715 132.752 208.054C123.807 213.769 116.478 221.684 111.465 231.04C111.465 231.04 114.464 218.735 114.167 200.932C113.869 183.13 110.291 159.804 97.1401 137.821Z" fill="#F6C34C" stroke="#070707" stroke-width="1.5" stroke-miterlimit="10" stroke-linecap="round"/>
<path d="M316.994 195.258C316.774 185.616 315.275 176.046 312.536 166.798C308.495 153.146 300.759 137.262 285.941 124.964C281.028 120.886 275.624 117.44 269.856 114.704C265.33 112.558 260.615 110.838 255.771 109.566C237.15 104.845 218.352 105.78 201.634 111.535C184.917 117.29 170.291 127.874 160.02 142.453C149.436 157.469 145.668 173.608 144.703 186.793C144.04 195.699 144.543 204.652 146.201 213.427L231.6 204.345L316.994 195.258Z" fill="#ECE7E1" stroke="black" stroke-width="1.5" stroke-miterlimit="10" stroke-linecap="round"/>
<path d="M237.641 203.704L277.318 199.481L316.995 195.258C316.775 185.616 315.276 176.046 312.537 166.798C308.495 153.145 300.76 137.262 285.941 124.964C281.029 120.886 275.625 117.44 269.857 114.704C265.331 112.558 260.616 110.838 255.772 109.566C252.666 108.779 249.557 108.147 246.446 107.671C243.335 107.195 240.236 106.872 237.151 106.702C230.829 118.048 226.825 130.538 225.37 143.445C223.494 160.232 225.602 180.941 237.641 203.704Z" fill="#F6991A" stroke="#070707" stroke-width="1.5" stroke-miterlimit="10" stroke-linecap="round"/>
<path d="M252.591 108.817C253.859 113.925 254.341 119.197 254.019 124.45C253.513 133.328 250.545 144.383 240.787 152.976C242.48 156.439 243.339 160.25 243.296 164.104C243.257 170.631 240.628 179.069 230.276 186.739" stroke="#070707" stroke-width="1.5" stroke-miterlimit="10" stroke-linecap="round"/>
<path d="M191.228 115.881C185.055 118.932 179.276 122.72 174.016 127.164C168.721 131.646 164.017 136.784 160.02 142.453C149.436 157.469 145.668 173.607 144.703 186.793C144.04 195.699 144.543 204.652 146.201 213.427L171.982 210.687L197.759 207.942C204.321 189.445 203.769 169.199 201.036 152.188C199.013 139.783 195.726 127.618 191.228 115.881Z" fill="#F6991A" stroke="#070707" stroke-width="1.5" stroke-miterlimit="10" stroke-linecap="round"/>
<path d="M176.981 124.767C176.335 129.233 176.269 133.763 176.784 138.246C177.579 144.905 180.003 152.489 186.326 157.295C187.198 157.956 188.119 158.548 189.082 159.067C190.223 159.683 191.415 160.2 192.645 160.611C191.353 163.025 190.419 165.614 189.873 168.296C188.989 172.596 188.912 178.131 191.938 183.416C193.269 185.721 195.04 187.744 197.149 189.368C198.556 190.457 200.085 191.379 201.704 192.116" stroke="#070707" stroke-width="1.5" stroke-miterlimit="10" stroke-linecap="round"/>
<path d="M142.492 272.23L152.142 288.172L161.792 304.114C156.581 307.989 151.375 311.878 146.174 315.779C140.974 319.68 135.748 323.54 130.499 327.359C126.11 330.555 121.675 333.674 116.9 335.851C112.125 338.028 107.015 339.228 101.271 338.607C98.6784 338.302 96.1304 337.695 93.6783 336.8C91.3927 336.005 89.2095 334.941 87.1742 333.631C86.9271 333.465 86.6724 333.288 86.4832 333.153L86.159 332.925C80.7216 329.392 76.7234 324.035 74.8839 317.817C73.1701 312.162 73.1624 306.198 73.8572 300.868C74.381 296.874 75.3442 292.95 76.729 289.168C78.1115 285.383 79.8837 281.752 82.0172 278.333L97.6348 253.243L113.248 228.153C114.484 226.166 115.806 224.236 117.217 222.363C118.628 220.5 120.133 218.709 121.725 216.998C127.434 210.831 134.64 206.244 142.642 203.681C150.297 201.152 158.592 200.207 167.373 199.797C180.015 199.226 194.536 200.593 207.294 205.375C220.051 210.158 231.033 218.36 236.618 231.453C237.328 233.126 238.056 234.79 238.803 236.444C239.549 238.099 240.304 239.75 241.069 241.397L257.848 277.576L274.627 313.756C275.926 316.55 276.697 319.56 276.901 322.634C277.23 327.555 275.995 332.454 273.373 336.631C272.457 338.069 271.393 339.408 270.2 340.626C265.986 344.983 260.328 347.655 254.285 348.141C248.228 348.648 242.186 347.009 237.216 343.509C227.501 336.661 215.886 325.753 206.703 316.543C197.52 307.333 190.761 299.852 190.761 299.852L202.469 285.57L214.176 271.288C214.194 271.267 214.206 271.24 214.21 271.212C214.213 271.184 214.208 271.156 214.195 271.13C214.183 271.106 214.165 271.085 214.141 271.07C214.118 271.056 214.091 271.049 214.064 271.049L178.27 271.647L142.492 272.23Z" fill="#84A1E5" stroke="#070707" stroke-width="1.5" stroke-miterlimit="10" stroke-linecap="round"/>
<path d="M254.837 293.032C254.837 295.949 253.826 298.777 251.975 301.032C250.124 303.288 247.549 304.832 244.687 305.401C241.826 305.97 238.856 305.53 236.282 304.155C233.709 302.78 231.693 300.555 230.576 297.859C229.459 295.164 229.312 292.165 230.159 289.373C231.005 286.581 232.794 284.169 235.22 282.548C237.645 280.927 240.558 280.197 243.462 280.483C246.365 280.769 249.08 282.052 251.143 284.115C252.316 285.285 253.246 286.675 253.88 288.205C254.514 289.735 254.839 291.376 254.837 293.032Z" fill="#DBCAF4" stroke="black" stroke-width="1.5" stroke-miterlimit="10" stroke-linecap="round"/>
<path d="M206.823 248.804C206.822 251.722 205.81 254.549 203.958 256.803C202.107 259.058 199.532 260.601 196.67 261.17C193.809 261.739 190.839 261.298 188.266 259.922C185.693 258.547 183.677 256.322 182.561 253.626C181.445 250.931 181.298 247.932 182.145 245.14C182.992 242.348 184.78 239.937 187.206 238.316C189.632 236.695 192.544 235.966 195.448 236.251C198.351 236.537 201.066 237.821 203.129 239.884C204.301 241.054 205.232 242.445 205.865 243.976C206.499 245.506 206.825 247.147 206.823 248.804Z" fill="#DBCAF4" stroke="black" stroke-width="1.5" stroke-miterlimit="10" stroke-linecap="round"/>
<path d="M109.37 305.642C109.37 308.56 108.358 311.387 106.508 313.643C104.657 315.898 102.082 317.442 99.2201 318.011C96.3587 318.581 93.3883 318.14 90.8152 316.765C88.242 315.39 86.2253 313.165 85.1087 310.47C83.992 307.775 83.8445 304.775 84.6912 301.983C85.538 299.191 87.3266 296.779 89.7524 295.158C92.1781 293.537 95.0909 292.808 97.9944 293.093C100.898 293.379 103.613 294.663 105.676 296.726C106.848 297.896 107.778 299.286 108.412 300.816C109.045 302.346 109.371 303.986 109.37 305.642Z" fill="#DBCAF4" stroke="black" stroke-width="1.5" stroke-miterlimit="10" stroke-linecap="round"/>
<path d="M244.723 336.075C244.726 333.257 243.784 330.52 242.049 328.3C240.314 326.081 237.885 324.506 235.15 323.828C232.416 323.15 229.533 323.408 226.961 324.56C224.39 325.712 222.279 327.692 220.965 330.184C223.725 332.682 226.512 335.114 229.245 337.368C231.978 339.622 234.649 341.699 237.212 343.498C237.744 343.873 238.287 344.225 238.841 344.551C239.394 344.878 239.955 345.186 240.524 345.474C241.848 344.293 242.907 342.844 243.631 341.224C244.355 339.604 244.727 337.849 244.723 336.075Z" fill="#DBCAF4" stroke="black" stroke-width="1.5" stroke-miterlimit="10" stroke-linecap="round"/>
<path d="M136.953 224.374C139.458 224.375 141.907 223.629 143.986 222.231C146.066 220.834 147.681 218.849 148.627 216.529C149.573 214.209 149.806 211.66 149.296 209.207C148.786 206.754 147.557 204.509 145.766 202.758C141.92 203.783 138.198 205.228 134.668 207.066C131.011 208.996 127.619 211.39 124.574 214.188C125.135 217.059 126.676 219.647 128.934 221.507C131.193 223.368 134.027 224.385 136.953 224.386V224.374Z" fill="#DBCAF4" stroke="black" stroke-width="1.5" stroke-miterlimit="10" stroke-linecap="round"/>
<path d="M216.87 224.374C219.06 224.377 221.213 223.809 223.116 222.726C225.02 221.643 226.608 220.082 227.724 218.198C224.769 215.203 221.444 212.598 217.831 210.443C214.154 208.252 210.268 206.431 206.231 205.009C205.603 205.998 205.113 207.07 204.776 208.193C204.215 210.076 204.102 212.064 204.445 213.998C204.788 215.932 205.579 217.76 206.753 219.335C207.928 220.909 209.455 222.188 211.211 223.068C212.967 223.948 214.905 224.406 216.87 224.405V224.374Z" fill="#DBCAF4" stroke="black" stroke-width="1.5" stroke-miterlimit="10" stroke-linecap="round"/>
<path d="M138.959 304.114C136.322 304.112 133.75 304.938 131.607 306.474C129.463 308.011 127.855 310.181 127.01 312.679C126.164 315.177 126.123 317.878 126.893 320.401C127.663 322.923 129.205 325.141 131.301 326.741C134.567 324.358 137.819 321.961 141.059 319.55C144.299 317.139 147.536 314.724 150.771 312.305C149.871 309.899 148.258 307.825 146.147 306.361C144.036 304.897 141.528 304.113 138.959 304.114Z" fill="#DBCAF4" stroke="black" stroke-width="1.5" stroke-miterlimit="10" stroke-linecap="round"/>
<path d="M110.593 234.896C107.674 247.248 98.5494 249.028 90.1539 247.735C81.7584 246.442 74.1118 242.064 74.1118 242.064C67.8161 250.421 60.706 253.158 55.1707 253.807C49.6355 254.455 45.6751 253.011 45.6751 253.011C28.7876 209.86 41.1512 180.285 57.7338 161.499C74.3163 142.712 95.1024 134.714 95.1024 134.714C95.1024 134.714 102.517 144.777 108.161 162.332C113.804 179.888 117.676 204.927 110.593 234.896Z" fill="#DBCAF4" stroke="black" stroke-width="1.5" stroke-miterlimit="10" stroke-linecap="round"/>
<path d="M95.1648 218.908C95.2382 220.215 94.9326 221.515 94.2847 222.653C93.6714 223.71 92.7908 224.588 91.7311 225.198C90.6715 225.807 89.4702 226.128 88.2477 226.127C86.9393 226.118 85.6609 225.734 84.5652 225.019H84.5343C83.44 225.734 82.1629 226.118 80.8558 226.127C79.6328 226.127 78.4311 225.807 77.371 225.197C76.3108 224.587 75.4294 223.71 74.8149 222.653C74.1683 221.515 73.864 220.215 73.9386 218.908C72.7703 218.319 71.7971 217.405 71.1363 216.276C70.5245 215.215 70.2024 214.013 70.2024 212.788C70.2024 211.564 70.5245 210.361 71.1363 209.301C71.7973 208.173 72.7705 207.26 73.9386 206.672C73.8643 205.367 74.1686 204.068 74.8149 202.932C75.4306 201.876 76.3123 200.999 77.3721 200.39C78.432 199.78 79.6331 199.459 80.8558 199.458C82.1632 199.468 83.4403 199.853 84.5343 200.57H84.5575C85.6529 199.853 86.9312 199.467 88.2399 199.458C89.4622 199.458 90.6629 199.779 91.7222 200.389C92.7816 200.999 93.6625 201.875 94.277 202.932C94.9244 204.068 95.23 205.367 95.1571 206.672C96.3235 207.262 97.2962 208.174 97.9594 209.301C98.569 210.362 98.8897 211.565 98.8897 212.788C98.8897 214.012 98.569 215.215 97.9594 216.276C97.2985 217.402 96.3287 218.316 95.1648 218.908Z" fill="#FF6406" stroke="#070707" stroke-width="1.5" stroke-miterlimit="10" stroke-linecap="round"/>
<path d="M88.5245 212.79C88.5226 213.708 88.2024 214.597 87.6187 215.305C87.0349 216.014 86.2236 216.498 85.3229 216.675C84.4223 216.853 83.488 216.712 82.6793 216.278C81.8706 215.844 81.2374 215.142 80.8877 214.294C80.5379 213.445 80.4933 212.501 80.7613 211.623C81.0292 210.745 81.5933 209.988 82.3574 209.479C83.1215 208.97 84.0383 208.742 84.9516 208.834C85.865 208.925 86.7184 209.33 87.3665 209.98C87.7353 210.349 88.0274 210.787 88.2261 211.27C88.4249 211.752 88.5263 212.269 88.5245 212.79Z" fill="#ECE7E1" stroke="black" stroke-width="1.5" stroke-miterlimit="10" stroke-linecap="round"/>
<path d="M104.822 160.387C103.81 160.364 102.845 159.957 102.125 159.246C101.404 158.536 100.981 157.578 100.944 156.567C100.906 155.556 101.257 154.568 101.923 153.807C102.589 153.045 103.521 152.567 104.528 152.47C103.756 150.648 103.011 148.953 102.274 147.398C101.537 145.842 100.827 144.414 100.147 143.152C99.7057 143.214 99.2713 143.318 98.8503 143.465C98.4379 143.599 98.0386 143.771 97.6575 143.978C96.5962 144.588 95.7157 145.468 95.1061 146.529C94.4586 147.667 94.153 148.967 94.226 150.274C93.06 150.866 92.0877 151.779 91.4236 152.906C90.8118 153.967 90.4897 155.169 90.4897 156.394C90.4897 157.618 90.8118 158.821 91.4236 159.881C92.0877 161.008 93.06 161.921 94.226 162.514C94.153 163.82 94.4586 165.12 95.1061 166.258C95.7194 167.315 96.6 168.193 97.6596 168.803C98.7192 169.413 99.9206 169.733 101.143 169.732C102.451 169.724 103.73 169.339 104.826 168.624H104.849C105.639 169.139 106.527 169.484 107.457 169.637C108.388 169.789 109.34 169.747 110.253 169.512C109.79 167.711 109.304 165.983 108.797 164.328C108.292 162.66 107.767 161.058 107.234 159.518C106.545 160.055 105.695 160.344 104.822 160.341V160.387Z" fill="#FF6406" stroke="#070707" stroke-width="1.5" stroke-miterlimit="10" stroke-linecap="round"/>
<path d="M100.851 156.419C100.851 156.94 100.953 157.456 101.153 157.938C101.353 158.42 101.645 158.857 102.014 159.226C102.383 159.594 102.821 159.887 103.303 160.086C103.785 160.285 104.301 160.387 104.823 160.387C105.696 160.391 106.546 160.101 107.235 159.565C106.795 158.291 106.343 157.06 105.892 155.878C105.44 154.697 104.985 153.562 104.529 152.462C103.529 152.534 102.594 152.983 101.912 153.717C101.229 154.451 100.85 155.416 100.851 156.419Z" fill="#ECE7E1" stroke="black" stroke-width="1.5" stroke-miterlimit="10" stroke-linecap="round"/>
<path d="M45.9341 179.957C45.8635 181.256 46.1677 182.547 46.8103 183.678C47.4189 184.732 48.2936 185.608 49.347 186.218C50.4004 186.827 51.5955 187.149 52.8126 187.152C54.1122 187.145 55.3818 186.762 56.468 186.048H56.495C57.5812 186.762 58.8509 187.145 60.1505 187.152C61.0827 187.161 62.007 186.979 62.8662 186.617C63.7254 186.255 64.5012 185.721 65.1458 185.048C65.7905 184.374 66.2901 183.576 66.614 182.701C66.9379 181.827 67.0792 180.896 67.029 179.965C68.1885 179.377 69.1546 178.469 69.812 177.348C70.4241 176.292 70.7465 175.094 70.7465 173.874C70.7465 172.654 70.4241 171.455 69.812 170.4C69.1546 169.278 68.1885 168.37 67.029 167.783C67.0983 166.484 66.7957 165.194 66.1566 164.062C65.623 163.14 64.8846 162.353 63.9984 161.762C63.1123 161.171 62.1021 160.792 61.046 160.653C60.1114 160.53 59.1612 160.607 58.2591 160.881C55.7815 163.631 53.4815 166.536 51.3728 169.577C49.145 172.79 47.1569 176.163 45.4246 179.668C45.5056 179.722 45.5905 179.772 45.6755 179.818L45.9341 179.961V179.957ZM56.4835 169.921C57.3948 169.922 58.2777 170.239 58.9818 170.818C59.6858 171.396 60.1676 172.201 60.345 173.095C60.5223 173.989 60.3844 174.917 59.9546 175.72C59.5249 176.524 58.8299 177.154 57.9879 177.503C57.1459 177.852 56.2091 177.898 55.3368 177.634C54.4646 177.37 53.7109 176.811 53.204 176.054C52.6971 175.297 52.4684 174.387 52.5568 173.48C52.6452 172.573 53.0452 171.724 53.6888 171.079C54.0573 170.711 54.495 170.42 54.9767 170.223C55.4584 170.025 55.9745 169.925 56.495 169.929L56.4835 169.921Z" fill="#FF6406" stroke="#070707" stroke-width="1.5" stroke-miterlimit="10" stroke-linecap="round"/>
<path d="M56.4945 177.822C57.4079 177.822 58.293 177.505 58.999 176.926C59.705 176.346 60.1883 175.54 60.3664 174.644C60.5446 173.748 60.4066 172.818 59.976 172.012C59.5455 171.207 58.8489 170.575 58.0051 170.225C57.1612 169.876 56.2222 169.829 55.348 170.094C54.4739 170.359 53.7186 170.919 53.2109 171.679C52.7031 172.438 52.4744 173.35 52.5635 174.259C52.6527 175.168 53.0543 176.018 53.6998 176.664C54.0663 177.032 54.5019 177.324 54.9815 177.522C55.4611 177.721 55.9753 177.823 56.4945 177.822Z" fill="#ECE7E1" stroke="black" stroke-width="1.5" stroke-miterlimit="10" stroke-linecap="round"/>
<path d="M281.78 271.481L276.376 294.028L270.972 316.578L295.355 325.552L319.735 334.523C322.306 335.598 324.998 336.356 327.752 336.781C331.665 337.401 335.665 337.19 339.491 336.16C344.246 334.809 348.578 332.266 352.074 328.772C355.817 325.038 358.725 320.553 360.605 315.613C361.629 312.972 362.369 310.231 362.813 307.433C363.253 304.633 363.427 301.798 363.33 298.965C362.99 288.709 362.211 279.364 361.234 271.057C360.257 262.75 359.076 255.489 357.941 249.402C354.305 229.971 350.152 217.6 346.47 209.644C342.787 201.689 339.579 198.122 337.835 196.32C324.672 182.686 307.113 176.707 292.175 174.202C282.281 172.54 272.221 172.107 262.221 172.912C256.112 173.496 250.065 174.609 244.149 176.24C235.664 178.568 227.507 181.955 219.869 186.322C212.329 190.648 205.357 195.895 199.114 201.944C202.627 203.028 206.064 204.342 209.405 205.877C211.917 207.031 214.365 208.32 216.739 209.737C218.821 210.971 220.83 212.324 222.757 213.79C224.239 214.948 225.227 215.813 225.79 216.322C226.601 217.055 227.589 218.001 228.662 219.167C229.87 220.481 230.995 221.868 232.032 223.32C233.977 226.052 235.604 228.997 236.88 232.098C237.6 233.861 238.215 235.666 238.721 237.502C242.404 250.24 248.059 262.264 254.204 274.087C260.349 285.91 266.992 297.544 272.639 309.556C274.163 303.216 275.685 296.873 277.206 290.527C278.727 284.181 280.251 277.832 281.78 271.481Z" fill="#C6FCDB" stroke="black" stroke-width="1.5" stroke-miterlimit="10" stroke-linecap="round"/>
<path d="M152.968 244.762C152.968 244.762 154.69 243.686 158.623 244.334C162.556 244.982 168.701 247.352 177.537 254.243" stroke="black" stroke-width="1.5" stroke-miterlimit="10" stroke-linecap="round"/>
<path d="M181.64 250.024C181.64 250.024 178.324 247.665 173.889 245.164C169.454 242.663 163.899 240.019 159.425 239.451" stroke="black" stroke-width="1.5" stroke-miterlimit="10" stroke-linecap="round"/>
<path d="M184.509 246.349C183.381 245.558 182.193 244.751 180.888 243.94C179.583 243.13 178.228 242.319 176.773 241.52C175.414 240.771 174.089 240.087 172.797 239.467C171.512 238.849 170.261 238.285 169.065 237.78" stroke="black" stroke-width="1.5" stroke-miterlimit="10" stroke-linecap="round"/>
<path d="M155.945 200.755C153.335 201.141 152.123 203.372 151.818 206.004C151.549 208.617 151.998 211.253 153.119 213.628C154.103 215.479 155.684 216.942 157.604 217.781C158.804 218.326 160.077 218.69 161.383 218.862C163.734 219.152 166.118 218.749 168.243 217.704C170.49 216.591 172.422 214.932 173.863 212.879C174.531 214.115 175.381 215.244 176.383 216.229C178.31 218.195 180.833 219.468 183.559 219.85C185.01 220.012 186.477 219.952 187.909 219.673C190.596 219.223 193.016 217.779 194.688 215.627C196.129 213.692 196.905 211.343 196.899 208.93C196.9 206.402 196.149 203.931 194.742 201.832C194.742 201.832 189.724 200.894 182.39 200.288C175.056 199.682 165.321 199.404 155.945 200.755Z" fill="#ECE7E1" stroke="black" stroke-width="1.5" stroke-miterlimit="10" stroke-linecap="round"/>
<path d="M120.587 253.077L116.65 251.085L112.712 249.09L102.985 260.978L93.2542 272.863L95.5161 274.338L97.7781 275.816L109.964 275.284L122.146 274.755L123.019 268.822L123.906 262.889L122.258 257.983L120.587 253.077Z" fill="#F2B3C1" stroke="black" stroke-width="1.5" stroke-miterlimit="10" stroke-linecap="round"/>
<path d="M104.68 245.025C104.409 245.222 104.05 245.473 103.614 245.747C103.114 246.058 102.599 246.342 102.07 246.6C98.5962 248.279 94.9214 248.495 91.5517 248.105C88.1819 247.715 85.1093 246.716 82.8088 245.971C81.7395 245.623 80.4349 245.156 78.9488 244.519C77.2787 243.802 75.6544 242.982 74.0852 242.064C73.4483 242.879 72.6956 243.774 71.8155 244.701C68.8663 247.801 65.373 250.334 61.5093 252.174L77.3777 262.519L93.2462 272.863L102.977 260.978L112.704 249.09L108.69 247.059L104.68 245.025Z" fill="#F6C34C" stroke="#070707" stroke-width="1.5" stroke-miterlimit="10" stroke-linecap="round"/>
<path d="M226.678 182.887C231.635 195.805 236.59 208.714 241.543 221.614C246.497 234.514 251.452 247.425 256.408 260.345C256.634 260.911 257.041 261.385 257.566 261.692C258.091 261.999 258.704 262.123 259.307 262.043C259.91 261.962 260.469 261.683 260.896 261.249C261.322 260.815 261.592 260.251 261.662 259.647L266.741 216.029L271.825 172.411C267.294 172.426 262.768 172.735 258.276 173.333C252.773 174.063 247.337 175.236 242.022 176.842C239.1 177.73 236.359 178.706 233.804 179.729C231.249 180.752 228.863 181.806 226.678 182.887Z" fill="#ECE7E1" stroke="black" stroke-width="1.5" stroke-miterlimit="10" stroke-linecap="round"/>
<path d="M194.493 197.107L205.722 200.809L216.951 204.507L208.134 212.385L199.314 220.259L196.906 208.683L194.493 197.107Z" fill="#040400" stroke="#040400" stroke-width="1.5" stroke-miterlimit="10"/>
<path d="M214.388 271.034L206.332 262.689L198.276 254.347C196.351 252.353 194.332 250.455 192.22 248.654C190.109 246.863 187.903 245.188 185.611 243.636C182.809 241.733 179.694 239.872 176.764 238.691C173.835 237.51 171.094 237 169.044 237.799C168.379 237.552 167.69 237.377 166.987 237.278C164.924 236.98 162.821 237.368 161 238.382C160.44 238.692 159.913 239.057 159.425 239.471C158.001 239.501 156.622 239.974 155.48 240.826C154.67 241.442 154.01 242.234 153.55 243.142C153.287 243.662 153.09 244.213 152.964 244.782C151.353 245.696 149.848 246.783 148.474 248.024C147.88 248.561 147.343 249.094 146.861 249.615C146.378 250.136 145.95 250.642 145.572 251.12C145.023 251.647 144.631 252.315 144.437 253.05C144.265 253.652 144.334 254.297 144.63 254.849C144.851 255.214 145.173 255.507 145.556 255.694C145.792 255.798 146.04 255.873 146.293 255.918C146.764 256.03 147.255 256.03 147.726 255.918C148.447 255.718 149.122 255.375 149.71 254.911C150.92 253.989 152.199 253.161 153.535 252.433C154.483 251.936 155.53 251.655 156.6 251.61H156.824H157.044C158.201 251.627 159.343 251.876 160.402 252.344C161.479 252.805 162.519 253.349 163.513 253.969C167.03 256.082 170.377 258.467 173.522 261.102C177.035 264.152 179.779 267.514 178.945 270.119C178.853 270.402 178.723 270.67 178.559 270.918C178.362 271.203 178.129 271.462 177.868 271.69C177.868 271.69 177.212 272.562 175.618 272.559C174.024 272.555 171.492 271.671 167.74 268.158C167.462 267.9 167.195 267.637 166.929 267.386C166.663 267.135 166.4 266.85 166.157 266.576C165.332 265.69 164.369 264.944 163.305 264.368C162.031 263.727 160.568 263.495 159.336 264.63C158.929 264.846 158.588 265.171 158.353 265.568C158.117 265.965 157.995 266.419 158.001 266.881C157.958 268.548 159.178 271.312 164.208 275.677C165.335 276.658 166.459 277.642 167.581 278.63C168.701 279.619 169.816 280.614 170.916 281.626L180.852 290.731L190.784 299.833L202.592 285.432L214.388 271.034Z" fill="#D87D61" stroke="black" stroke-width="1.5" stroke-miterlimit="10" stroke-linecap="round"/>
<path d="M260.55 261.546C260.389 261.673 260.213 261.779 260.025 261.863C259.718 262.004 259.387 262.084 259.049 262.098C258.526 262.12 258.009 261.985 257.563 261.712C255.98 250.904 254.4 240.086 252.823 229.257C251.245 218.428 249.664 207.609 248.079 196.798L249.414 196.594L250.746 196.385C252.393 207.253 254.032 218.113 255.664 228.968C257.295 239.822 258.924 250.681 260.55 261.546Z" fill="#F6991A" stroke="#070707" stroke-width="1.5" stroke-miterlimit="10" stroke-linecap="round"/>
<path d="M265.916 222.942C265.73 224.303 265.546 225.665 265.364 227.026L264.796 231.11C263.741 224.805 262.686 218.501 261.631 212.196C260.576 205.891 259.52 199.587 258.462 193.282L259.72 192.448L260.982 191.618C261.801 196.837 262.622 202.057 263.445 207.278C264.269 212.5 265.092 217.721 265.916 222.942Z" fill="#F6991A" stroke="#070707" stroke-width="1.5" stroke-miterlimit="10" stroke-linecap="round"/>
<path d="M247.457 237.973C246.623 235.657 245.791 233.332 244.96 230.998L242.462 224.019C241.497 219.032 240.534 214.043 239.571 209.054C238.609 204.064 237.646 199.074 236.684 194.085C236.915 194.204 237.162 194.328 237.417 194.447C237.672 194.567 237.934 194.683 238.189 194.803C238.405 194.895 238.622 194.98 238.83 195.061L239.451 195.293C240.779 202.408 242.11 209.521 243.443 216.631L247.457 237.973Z" fill="#F6991A" stroke="#070707" stroke-width="1.5" stroke-miterlimit="10" stroke-linecap="round"/>
<path d="M120.587 285.509C121.138 281.739 121.688 277.969 122.239 274.199C122.79 270.429 123.339 266.659 123.887 262.889C123.339 261.252 122.79 259.617 122.239 257.983L120.587 253.077L97.3382 243.466L74.1125 233.85L98.5039 228.014L122.899 222.174C125.948 221.444 128.986 220.676 132.024 219.893C135.062 219.109 138.088 218.302 141.122 217.507C144.327 216.649 147.698 216.632 150.911 217.457C154.856 218.495 159.199 221.066 163.105 226.57L172.369 238.297L181.633 250.024L151.108 267.78L120.587 285.509Z" fill="#ECE7E1" stroke="black" stroke-width="1.5" stroke-miterlimit="10" stroke-linecap="round"/>
<path d="M106.849 247.256C107.96 247.013 108.999 246.513 109.883 245.797C111.484 244.562 113.249 242.323 113.901 238.243" stroke="black" stroke-width="1.5" stroke-miterlimit="10" stroke-linecap="round"/>
<path d="M163.085 226.582C159.179 221.074 154.833 218.507 150.892 217.465C147.678 216.643 144.307 216.661 141.103 217.519C138.069 218.314 135.039 219.117 132.001 219.904C128.963 220.692 125.929 221.448 122.88 222.186L120.625 222.722L118.371 223.263C118.864 228.179 120.519 232.908 123.2 237.058C125.743 240.999 129.328 244.158 133.556 246.187C136.571 247.599 139.841 248.387 143.168 248.503C145.396 248.584 147.626 248.401 149.811 247.959C150.701 249.897 151.592 251.836 152.482 253.776L155.157 259.597C155.449 260.328 155.777 261.044 156.141 261.743C156.556 262.546 157.026 263.32 157.546 264.059C159.609 267.131 162.786 269.281 166.405 270.053C169.954 270.842 173.67 270.201 176.75 268.27C177.724 267.651 178.615 266.91 179.402 266.066C180.171 265.235 180.836 264.313 181.382 263.322C182.705 260.91 183.266 258.154 182.991 255.416C182.719 252.671 181.663 250.063 179.95 247.901L171.519 237.251L163.085 226.582Z" fill="#040400" stroke="#040400" stroke-width="1.5" stroke-miterlimit="10"/>
<path d="M113.9 238.243C115.706 238.08 117.524 238.361 119.196 239.061C120.59 239.694 121.547 240.644 121.875 241.763C121.952 242.051 121.995 242.346 122.002 242.644C122.028 243.185 121.894 243.722 121.616 244.188C121.006 245.149 119.667 245.681 117.864 245.732C115.627 245.708 113.417 245.242 111.36 244.361C111.619 244.03 111.86 243.686 112.082 243.331C112.346 242.911 112.584 242.477 112.796 242.03C113.363 240.834 113.737 239.556 113.904 238.243H113.9Z" fill="#FC762B" stroke="#070707" stroke-width="1.5" stroke-miterlimit="10" stroke-linecap="round"/>
<path d="M130.163 231.666C130.163 232.105 130.01 232.531 129.731 232.87C129.452 233.21 129.064 233.442 128.633 233.528C128.202 233.613 127.755 233.547 127.368 233.339C126.98 233.132 126.677 232.797 126.509 232.391C126.341 231.985 126.319 231.533 126.446 231.113C126.574 230.693 126.844 230.329 127.209 230.085C127.574 229.841 128.013 229.732 128.45 229.775C128.888 229.818 129.296 230.012 129.607 230.322C129.784 230.499 129.924 230.708 130.019 230.938C130.114 231.169 130.163 231.416 130.163 231.666Z" fill="#ECE7E1" stroke="black" stroke-width="1.5" stroke-miterlimit="10" stroke-linecap="round"/>
<path d="M121.79 256.659C123.763 256.848 125.905 256.983 128.202 257.045C130.498 257.107 132.95 257.045 135.536 256.856C138.643 256.641 141.735 256.255 144.8 255.698C147.641 255.173 150.204 254.54 152.52 253.895L153.832 256.759L155.148 259.62C151.967 260.836 148.692 261.791 145.356 262.476C141.165 263.334 136.895 263.74 132.618 263.688C131.027 263.665 129.499 263.58 128.04 263.449C126.581 263.318 125.195 263.136 123.879 262.924L122.84 259.778L121.79 256.659Z" fill="#DBCAF4" stroke="black" stroke-width="1.5" stroke-miterlimit="10" stroke-linecap="round"/>
<path d="M194.586 199.195C194.83 198.736 195.069 198.257 195.301 197.752C195.532 197.246 195.76 196.717 195.976 196.161C196.59 194.582 197.067 192.952 197.4 191.29C197.677 189.906 197.855 188.504 197.933 187.094C198.552 187.134 199.163 187.254 199.751 187.449C200.514 187.696 201.201 188.136 201.743 188.727C202.924 190.055 203.21 192.139 202.766 194.131C202.322 196.123 201.148 197.991 199.415 198.898C198.538 199.344 197.562 199.56 196.578 199.524C195.903 199.499 195.234 199.389 194.586 199.195Z" fill="#D87D61" stroke="black" stroke-width="1.5" stroke-miterlimit="10" stroke-linecap="round"/>
<path d="M155.183 188.295L143.363 188.607L131.544 188.92L137.728 198.999L143.908 209.077L149.543 198.686L155.183 188.295Z" fill="#040400" stroke="#040400" stroke-width="1.5" stroke-miterlimit="10"/>
<path d="M142.693 272.709L151.752 265.375L160.815 258.041C163.008 256.34 165.276 254.75 167.621 253.27C169.967 251.793 172.39 250.442 174.881 249.225C177.923 247.739 181.273 246.345 184.342 245.593C187.411 244.84 190.198 244.728 192.112 245.813C193.472 245.511 194.88 245.509 196.241 245.806C197.601 246.103 198.881 246.693 199.99 247.534C200.5 247.921 200.971 248.357 201.396 248.835C201.925 248.924 202.443 249.072 202.939 249.279C203.816 249.643 204.605 250.191 205.251 250.887C205.898 251.582 206.388 252.408 206.688 253.309C206.875 253.86 206.992 254.434 207.035 255.015L210.061 258.338L213.087 261.666C213.779 262.284 214.231 263.125 214.365 264.043C214.43 264.412 214.418 264.789 214.33 265.153C214.242 265.516 214.079 265.858 213.852 266.155C213.554 266.46 213.191 266.693 212.789 266.836C212.388 266.979 211.959 267.029 211.536 266.981C211.008 266.941 210.494 266.793 210.025 266.547C209.556 266.3 209.143 265.961 208.811 265.549C208.131 264.83 207.371 264.193 206.545 263.65C205.229 262.776 203.755 262.168 202.206 261.859L201.986 261.816L201.77 261.781C200.677 261.608 199.565 261.596 198.47 261.747C197.372 261.9 196.3 262.198 195.281 262.634C191.5 264.225 187.849 266.109 184.361 268.27C180.44 270.756 177.24 273.674 177.695 276.376C177.746 276.669 177.836 276.953 177.965 277.221C178.117 277.537 178.309 277.831 178.537 278.098C178.537 278.098 179.062 279.055 180.64 279.256C182.219 279.456 184.848 278.966 189.067 276.025C189.375 275.809 189.68 275.589 189.981 275.361C190.283 275.133 190.58 274.905 190.873 274.67C191.818 273.913 192.877 273.312 194.011 272.89C195.366 272.439 196.845 272.42 197.906 273.72C198.279 273.992 198.569 274.362 198.746 274.788C198.922 275.214 198.977 275.681 198.906 276.137C198.705 277.793 197.107 280.356 191.506 283.961C190.248 284.766 188.995 285.58 187.747 286.4C186.496 287.219 185.253 288.045 184.018 288.89L172.889 296.518L161.757 304.114C158.579 298.88 155.401 293.646 152.223 288.412L142.693 272.709Z" fill="#D87D61" stroke="black" stroke-width="1.5" stroke-miterlimit="10" stroke-linecap="round"/>
<path d="M197.578 190.298C196.42 197.215 192.996 203.078 188.372 206.966C183.748 210.853 177.95 212.756 172.025 211.791C166.1 210.826 161.217 207.12 158.11 201.948C155.002 196.775 153.628 190.105 154.786 183.188C155.944 176.271 159.368 170.407 163.992 166.517C168.617 162.626 174.414 160.727 180.339 161.692C186.265 162.657 191.147 166.366 194.255 171.538C197.362 176.711 198.728 183.373 197.578 190.298Z" fill="#D87D61" stroke="black" stroke-width="1.5" stroke-miterlimit="10" stroke-linecap="round"/>
<path d="M182.134 185.28C182.075 185.623 181.884 185.929 181.601 186.133C181.425 186.259 181.221 186.339 181.006 186.367C180.792 186.395 180.574 186.37 180.371 186.293C180.169 186.217 179.988 186.092 179.846 185.929C179.703 185.766 179.603 185.571 179.554 185.36C179.505 185.15 179.509 184.93 179.565 184.721C179.621 184.512 179.727 184.32 179.875 184.162C180.023 184.004 180.207 183.885 180.412 183.816C180.617 183.746 180.836 183.728 181.049 183.763C181.22 183.791 181.384 183.853 181.531 183.944C181.678 184.036 181.806 184.155 181.906 184.296C182.007 184.437 182.079 184.597 182.118 184.765C182.157 184.934 182.162 185.109 182.134 185.28Z" fill="#040400"/>
<path d="M166.412 183.095C166.376 183.308 166.288 183.509 166.156 183.681C166.024 183.852 165.851 183.987 165.654 184.076C165.457 184.165 165.241 184.203 165.025 184.189C164.81 184.174 164.601 184.107 164.418 183.992C164.234 183.878 164.082 183.72 163.974 183.532C163.866 183.345 163.806 183.134 163.799 182.918C163.792 182.702 163.838 182.487 163.934 182.293C164.03 182.099 164.172 181.932 164.347 181.806C164.559 181.654 164.812 181.568 165.072 181.56C165.333 181.552 165.59 181.621 165.812 181.759C166.033 181.897 166.208 182.098 166.315 182.336C166.422 182.574 166.456 182.838 166.412 183.095Z" fill="#040400"/>
<path d="M170.044 189.14L169.014 187.82L167.987 186.5C167.973 186.483 167.964 186.464 167.96 186.442C167.957 186.421 167.959 186.4 167.967 186.38C167.975 186.36 167.988 186.342 168.005 186.328C168.022 186.315 168.043 186.306 168.064 186.303L169.608 186.187L171.152 186.067L171.789 182.227L172.43 178.367" stroke="black" stroke-width="1.5" stroke-miterlimit="10" stroke-linecap="round"/>
<path d="M175.63 193.201C175.236 193.885 174.66 194.448 173.966 194.826C173.237 195.224 172.42 195.434 171.589 195.436C170.68 195.441 169.786 195.204 168.999 194.749C168.242 194.317 167.628 193.675 167.231 192.9" stroke="black" stroke-width="1.5" stroke-miterlimit="10" stroke-linecap="round"/>
<path d="M179.15 177.394L182.856 179.011L186.561 180.633" stroke="black" stroke-width="1.5" stroke-miterlimit="10" stroke-linecap="round"/>
<path d="M207.027 254.984C207.027 254.984 205.483 253.672 201.491 253.753C197.5 253.834 191.069 255.297 181.354 260.863" stroke="black" stroke-width="1.5" stroke-miterlimit="10" stroke-linecap="round"/>
<path d="M169.098 176.688L165.111 177.653L161.127 178.614" stroke="black" stroke-width="1.5" stroke-miterlimit="10" stroke-linecap="round"/>
<path d="M177.895 256.103C177.895 256.103 181.515 254.243 186.259 252.398C191.003 250.553 196.882 248.731 201.394 248.804" stroke="black" stroke-width="1.5" stroke-miterlimit="10" stroke-linecap="round"/>
<path d="M187.388 192.332C187.257 193.125 186.855 193.849 186.251 194.379C185.646 194.909 184.877 195.213 184.073 195.239C183.27 195.266 182.482 195.012 181.845 194.523C181.207 194.033 180.759 193.338 180.576 192.555C180.394 191.772 180.489 190.95 180.845 190.229C181.201 189.508 181.796 188.933 182.528 188.602C183.26 188.271 184.085 188.204 184.861 188.412C185.638 188.621 186.318 189.092 186.785 189.746C187.321 190.494 187.537 191.424 187.388 192.332Z" fill="#FF6406" stroke="#070707" stroke-width="1.5" stroke-miterlimit="10" stroke-linecap="round"/>
<path d="M166.293 189.209C166.162 190.002 165.76 190.725 165.155 191.255C164.55 191.784 163.781 192.088 162.977 192.113C162.174 192.139 161.387 191.886 160.749 191.396C160.112 190.906 159.664 190.211 159.482 189.428C159.3 188.645 159.395 187.823 159.751 187.103C160.107 186.382 160.702 185.807 161.434 185.476C162.167 185.145 162.991 185.078 163.767 185.286C164.543 185.495 165.223 185.966 165.691 186.619C165.957 186.99 166.147 187.41 166.25 187.855C166.353 188.299 166.368 188.759 166.293 189.209Z" fill="#FF6406" stroke="#070707" stroke-width="1.5" stroke-miterlimit="10" stroke-linecap="round"/>
<path d="M157.542 174.731C160.494 175.281 163.512 175.38 166.494 175.024C171.577 174.445 177.877 172.407 182.744 166.586C183.684 169.681 184.921 172.677 186.438 175.534C188.932 180.227 192.73 185.353 197.945 187.094C198.565 187.138 199.175 187.268 199.759 187.48C200.343 187.663 200.883 187.963 201.348 188.361C201.812 188.759 202.191 189.247 202.461 189.796C202.461 189.796 205.399 183.4 204.696 175.9C203.993 168.4 199.651 159.762 185.091 155.299C180.538 154.11 175.758 154.092 171.195 155.245C163.772 157.175 155.412 163.081 151.656 178.869C152.062 178.686 152.49 178.556 152.93 178.483C153.891 178.292 154.887 178.389 155.794 178.761L156.681 176.757L157.542 174.731Z" fill="#040400" stroke="#040400" stroke-width="1.5" stroke-miterlimit="10"/>
<path d="M164.764 193.645C164.784 193.552 164.798 193.458 164.807 193.363C164.807 193.266 164.826 193.17 164.83 193.077C164.84 192.811 164.831 192.544 164.803 192.278C164.776 192.012 164.737 191.749 164.695 191.487C164.591 190.811 164.467 190.136 164.328 189.468C164.189 188.8 164.035 188.129 163.865 187.469C163.85 187.412 163.819 187.362 163.776 187.322C163.733 187.283 163.68 187.256 163.623 187.246C163.565 187.235 163.506 187.241 163.452 187.263C163.398 187.285 163.351 187.321 163.317 187.368C163.051 187.754 162.788 188.14 162.545 188.526C162.302 188.912 162.043 189.318 161.804 189.715C161.518 190.19 161.213 190.676 160.955 191.186C160.688 191.683 160.495 192.216 160.383 192.768C160.337 193.035 160.322 193.306 160.341 193.575C160.363 193.841 160.428 194.102 160.534 194.347C160.703 194.71 160.971 195.017 161.306 195.235C161.631 195.462 162.013 195.594 162.409 195.617C162.805 195.64 163.199 195.553 163.549 195.366C164.059 195.11 164.453 194.668 164.649 194.131C164.701 193.972 164.739 193.81 164.764 193.645Z" fill="#84A1E5" stroke="#070707" stroke-width="1.5" stroke-miterlimit="10" stroke-linecap="round"/>
<path d="M175.603 252.058C176.831 251.436 178.139 250.811 179.533 250.193C180.926 249.576 182.397 248.966 183.948 248.383C185.4 247.835 186.812 247.349 188.175 246.92C189.538 246.492 190.854 246.11 192.112 245.762" stroke="black" stroke-width="1.5" stroke-miterlimit="10" stroke-linecap="round"/>
<path d="M214.388 271.034L229.442 283.687L244.496 296.34" stroke="black" stroke-width="1.5" stroke-miterlimit="10" stroke-linecap="round"/>
<path d="M272.176 165.397C272.562 173.658 270.158 181.281 265.927 186.924C261.697 192.568 255.656 196.231 248.804 196.574C241.953 196.918 235.588 193.899 230.828 188.715C226.069 183.531 222.938 176.194 222.541 167.933C222.143 159.673 224.563 152.053 228.79 146.41C233.017 140.767 239.062 137.1 245.913 136.76C252.765 136.42 259.13 139.439 263.881 144.623C268.633 149.807 271.779 157.137 272.176 165.397Z" fill="#D87D61" stroke="black" stroke-width="1.5" stroke-miterlimit="10" stroke-linecap="round"/>
<path d="M249.356 163.965C249.377 164.273 249.306 164.581 249.15 164.848C248.995 165.116 248.763 165.33 248.484 165.464C248.206 165.598 247.893 165.645 247.588 165.599C247.282 165.554 246.997 165.417 246.769 165.208C246.465 164.93 246.282 164.543 246.26 164.131C246.239 163.822 246.313 163.513 246.47 163.246C246.627 162.979 246.861 162.765 247.141 162.633C247.421 162.5 247.735 162.455 248.041 162.504C248.347 162.552 248.632 162.691 248.858 162.904C249.157 163.178 249.336 163.56 249.356 163.965Z" fill="#040400"/>
<path d="M232.901 167.485C232.925 167.896 232.786 168.299 232.515 168.609C232.378 168.761 232.212 168.884 232.028 168.972C231.843 169.06 231.642 169.111 231.438 169.122C231.233 169.132 231.029 169.102 230.836 169.034C230.643 168.965 230.465 168.86 230.313 168.722C230.161 168.585 230.038 168.42 229.95 168.235C229.861 168.05 229.811 167.849 229.8 167.645C229.79 167.44 229.819 167.236 229.888 167.043C229.956 166.85 230.062 166.672 230.199 166.52C230.478 166.216 230.864 166.033 231.276 166.011C231.48 165.999 231.685 166.028 231.877 166.097C232.07 166.165 232.247 166.27 232.399 166.408C232.55 166.545 232.673 166.711 232.76 166.896C232.847 167.081 232.896 167.281 232.905 167.485H232.901Z" fill="#040400"/>
<path d="M239.389 172.928L237.656 171.979L235.923 170.998C235.901 170.986 235.883 170.968 235.87 170.946C235.857 170.924 235.85 170.9 235.85 170.875C235.848 170.849 235.854 170.824 235.866 170.801C235.879 170.779 235.897 170.76 235.919 170.747L237.544 169.894L239.169 169.041L238.065 164.579L236.961 160.121" stroke="black" stroke-width="1.5" stroke-miterlimit="10" stroke-linecap="round"/>
<path d="M247.097 175.665C246.913 176.578 246.478 177.423 245.843 178.104C245.176 178.822 244.34 179.363 243.411 179.675C242.394 180.02 241.305 180.088 240.253 179.872C239.245 179.673 238.317 179.182 237.586 178.459" stroke="black" stroke-width="1.5" stroke-miterlimit="10" stroke-linecap="round"/>
<path d="M244.183 155.708L248.889 154.933L253.594 154.157" stroke="black" stroke-width="1.5" stroke-miterlimit="10" stroke-linecap="round"/>
<path d="M233.916 157.511L229.33 159.055L224.745 160.599" stroke="black" stroke-width="1.5" stroke-miterlimit="10" stroke-linecap="round"/>
<path d="M271.825 172.388C271.945 171.616 272.045 170.774 272.118 169.886C272.192 168.998 272.23 168.064 272.226 167.08C272.224 165.371 272.095 163.664 271.84 161.973C271.632 160.578 271.342 159.196 270.972 157.835C271.774 157.632 272.6 157.536 273.427 157.55C274.553 157.549 275.655 157.882 276.592 158.507C278.341 159.738 279.174 162.077 279.136 164.475C279.097 166.872 278.19 169.33 276.434 170.801C275.706 171.406 274.855 171.844 273.94 172.086C273.25 172.274 272.54 172.375 271.825 172.388Z" fill="#D87D61" stroke="black" stroke-width="1.5" stroke-miterlimit="10" stroke-linecap="round"/>
<path d="M257.686 170.863C257.732 171.808 257.449 172.74 256.885 173.5C256.321 174.261 255.511 174.801 254.592 175.031C253.674 175.261 252.705 175.165 251.849 174.76C250.994 174.355 250.305 173.666 249.9 172.811C249.496 171.955 249.401 170.985 249.631 170.067C249.861 169.149 250.402 168.339 251.162 167.775C251.922 167.212 252.855 166.929 253.8 166.975C254.745 167.022 255.645 167.394 256.347 168.03C256.746 168.39 257.07 168.826 257.3 169.313C257.53 169.799 257.661 170.326 257.686 170.863Z" fill="#FF6406" stroke="#070707" stroke-width="1.5" stroke-miterlimit="10" stroke-linecap="round"/>
<path d="M234.657 176.337C234.703 177.283 234.42 178.216 233.856 178.977C233.291 179.738 232.48 180.28 231.561 180.51C230.642 180.74 229.671 180.644 228.815 180.239C227.958 179.834 227.269 179.144 226.864 178.287C226.459 177.431 226.363 176.46 226.594 175.541C226.824 174.622 227.366 173.811 228.127 173.247C228.889 172.683 229.822 172.4 230.768 172.447C231.715 172.493 232.616 172.867 233.318 173.503C233.717 173.864 234.041 174.3 234.271 174.786C234.501 175.272 234.632 175.799 234.657 176.337Z" fill="#FF6406" stroke="#070707" stroke-width="1.5" stroke-miterlimit="10" stroke-linecap="round"/>
<path d="M225.25 180.262C224.98 179.575 224.714 178.849 224.478 178.089C224.243 177.328 223.984 176.545 223.76 175.699C223.277 173.912 222.909 172.095 222.656 170.261C222.445 168.694 222.316 167.117 222.27 165.536C221.563 165.465 220.849 165.487 220.147 165.602C219.237 165.748 218.381 166.131 217.665 166.713C216.083 168.037 215.735 170.407 216.233 172.793C216.731 175.178 218.075 177.587 219.869 178.969C220.771 179.653 221.835 180.089 222.957 180.235C223.717 180.344 224.488 180.353 225.25 180.262Z" fill="#D87D61" stroke="black" stroke-width="1.5" stroke-miterlimit="10" stroke-linecap="round"/>
<path d="M234.962 145.476C234.956 147.841 234.13 150.132 232.625 151.956C231.119 153.781 229.028 155.028 226.706 155.483C224.385 155.939 221.977 155.575 219.894 154.455C217.81 153.334 216.18 151.526 215.28 149.338C214.381 147.15 214.267 144.718 214.96 142.456C215.653 140.194 217.108 138.242 219.078 136.933C221.049 135.624 223.412 135.038 225.766 135.276C228.119 135.514 230.318 136.561 231.986 138.238C232.934 139.189 233.685 140.318 234.196 141.56C234.706 142.802 234.967 144.133 234.962 145.476Z" fill="#040400" stroke="#040400" stroke-width="1.5" stroke-miterlimit="10"/>
<path d="M253.475 138.539C253.475 141.878 252.317 145.114 250.199 147.695C248.08 150.276 245.133 152.043 241.858 152.694C238.583 153.345 235.183 152.841 232.239 151.266C229.294 149.692 226.986 147.146 225.709 144.061C224.431 140.976 224.263 137.543 225.232 134.348C226.202 131.153 228.249 128.393 231.025 126.538C233.802 124.683 237.135 123.848 240.458 124.175C243.781 124.503 246.888 125.972 249.249 128.334C250.591 129.672 251.656 131.263 252.382 133.014C253.107 134.766 253.479 136.644 253.475 138.539Z" fill="#040400" stroke="#040400" stroke-width="1.5" stroke-miterlimit="10"/>
<path d="M276.681 138.539C276.686 141.879 275.532 145.117 273.417 147.702C271.302 150.286 268.357 152.058 265.082 152.714C261.807 153.37 258.407 152.871 255.459 151.301C252.511 149.731 250.199 147.188 248.916 144.104C247.633 141.021 247.459 137.588 248.423 134.391C249.388 131.193 251.431 128.429 254.205 126.569C256.979 124.709 260.311 123.868 263.636 124.19C266.96 124.512 270.07 125.976 272.435 128.333C273.781 129.67 274.849 131.26 275.578 133.012C276.307 134.764 276.682 136.642 276.681 138.539Z" fill="#040400" stroke="#040400" stroke-width="1.5" stroke-miterlimit="10"/>
<path d="M133.202 120.721C131.58 128.19 132.696 135.517 135.815 141.322C138.934 147.128 144.056 151.412 150.44 152.798C156.825 154.184 163.259 152.412 168.505 148.424C173.751 144.437 177.812 138.238 179.433 130.769C181.054 123.3 179.942 115.97 176.82 110.164C173.697 104.359 168.582 100.074 162.198 98.6884C155.813 97.3026 149.379 99.0744 144.133 103.062C138.887 107.049 134.827 113.248 133.202 120.721Z" fill="#F2B3C1" stroke="black" stroke-width="1.5" stroke-miterlimit="10" stroke-linecap="round"/>
<path d="M260.416 151.13C260.666 153.541 261.303 155.894 262.303 158.102C263.893 161.417 266.777 164.409 271.953 163.085C271.953 163.085 271.857 162.247 271.687 161.174C271.518 160.047 271.28 158.932 270.973 157.835C270.973 157.835 271.359 157.746 271.926 157.673C272.651 157.577 273.384 157.552 274.115 157.6C274.38 156.387 274.555 155.156 274.64 153.917C274.87 150.97 274.693 148.004 274.115 145.105L267.267 148.116L260.416 151.13Z" fill="#040400" stroke="#040400" stroke-width="1.5" stroke-miterlimit="10"/>
<path d="M281.781 271.034L276.824 291.38L271.872 311.726C266.146 310.268 260.585 308.228 255.274 305.639C251.453 303.766 247.785 301.597 244.304 299.15C241.935 297.494 239.69 295.668 237.587 293.684C234.314 290.599 231.437 287.119 229.022 283.324C228.004 281.653 227.117 279.906 226.37 278.097C225.174 275.175 224.243 271.632 225.297 269.162C225.413 268.87 225.562 268.593 225.741 268.335C226.002 267.949 226.36 267.638 226.779 267.432C227.482 267.139 228.266 267.106 228.991 267.34C229.575 267.498 230.125 267.759 230.616 268.112C231.837 269.07 232.922 270.191 233.839 271.443C234.785 272.686 235.634 274.014 236.464 275.28C237.089 276.297 237.832 277.237 238.676 278.082C239.606 278.947 240.691 279.499 241.814 279.016C242.027 278.92 242.213 278.775 242.358 278.591C242.507 278.408 242.623 278.2 242.702 277.978C243.474 275.778 242.702 272.786 241.725 270.343C241.122 268.845 240.403 267.397 239.575 266.012C238.178 263.891 236.604 261.892 234.87 260.036C232.878 257.836 230.365 255.277 227.03 251.892C225.769 250.686 224.599 249.388 223.529 248.009C222.63 246.743 222.14 245.531 222.518 244.434C222.693 243.951 223.001 243.527 223.406 243.211C223.776 242.913 224.185 242.668 224.622 242.481C223.772 241.718 223.224 240.676 223.078 239.544C223.008 239.089 223.038 238.624 223.166 238.182C223.294 237.74 223.517 237.332 223.819 236.985C224.346 236.473 225.045 236.176 225.78 236.151C226.198 236.119 226.618 236.141 227.03 236.216C226.613 235.386 226.431 234.457 226.505 233.53C226.53 232.853 226.781 232.203 227.217 231.685C227.654 231.167 228.251 230.809 228.914 230.67C229.247 230.589 229.587 230.543 229.929 230.534C230.254 230.528 230.578 230.57 230.89 230.658C231.312 230.784 231.725 230.935 232.129 231.11C232.593 231.303 233.133 231.534 233.735 231.812C234.337 232.09 235.001 232.418 235.719 232.796C235.978 232.53 236.252 232.21 236.541 231.901C236.812 231.599 237.116 231.33 237.448 231.098C238.853 230.187 240.617 230.573 242.297 231.384C243.83 232.203 245.288 233.155 246.655 234.229C248.725 235.732 250.662 237.411 252.445 239.247C253.481 240.308 254.461 241.423 255.378 242.589C260.655 249.294 263.669 253.397 265.951 256.346C267.813 258.871 269.879 261.24 272.127 263.429C273.192 264.46 274.52 265.668 276.129 266.969C277.937 268.427 279.823 269.784 281.781 271.034Z" fill="#D87D61" stroke="black" stroke-width="1.5" stroke-miterlimit="10" stroke-linecap="round"/>
<path d="M224.621 242.485C226.165 243.489 227.779 244.616 229.454 245.89C231.129 247.164 232.851 248.592 234.599 250.136C236.853 252.164 238.994 254.314 241.011 256.578C242.879 258.682 244.485 260.708 245.867 262.588" stroke="black" stroke-width="1.5" stroke-miterlimit="10" stroke-linecap="round"/>
<path d="M227.026 236.232C228.759 237.301 230.616 238.548 232.55 239.976C234.484 241.404 236.499 243.041 238.533 244.882C240.885 247.01 243.108 249.277 245.187 251.672C247.117 253.88 248.723 255.999 250.09 257.933" stroke="black" stroke-width="1.5" stroke-miterlimit="10" stroke-linecap="round"/>
<path d="M235.719 232.808C237.556 234.259 239.498 235.896 241.509 237.768C243.52 239.64 245.554 241.701 247.6 244.002C249.013 245.588 250.302 247.156 251.503 248.684C252.703 250.213 253.78 251.707 254.772 253.146" stroke="black" stroke-width="1.5" stroke-miterlimit="10" stroke-linecap="round"/>
<path d="M326.733 283.687L304.257 277.36L281.784 271.034" stroke="black" stroke-width="1.5" stroke-miterlimit="10" stroke-linecap="round"/>
<path d="M132.463 127.149C132.463 126.419 132.506 125.643 132.575 124.833C132.645 124.022 132.749 123.153 132.899 122.258C133.159 120.7 133.535 119.163 134.023 117.661C134.426 116.419 134.903 115.202 135.451 114.017C134.75 113.711 134.011 113.498 133.255 113.384C132.229 113.211 131.174 113.345 130.224 113.77C128.441 114.627 127.329 116.634 127.001 118.826C126.673 121.019 127.129 123.397 128.491 125.002C129.065 125.661 129.775 126.188 130.572 126.546C131.176 126.822 131.811 127.024 132.463 127.149Z" fill="#F2B3C1" stroke="black" stroke-width="1.5" stroke-miterlimit="10" stroke-linecap="round"/>
<path d="M297.645 249.286L301.076 263.205L304.508 277.121" stroke="black" stroke-width="1.5" stroke-miterlimit="10" stroke-linecap="round"/>
<path d="M136.725 111.608C138.955 112.901 141.447 113.674 144.017 113.87C148.359 114.229 154.099 113.032 159.681 106.795C160.094 109.379 161.019 111.855 162.401 114.078C163.783 116.301 165.594 118.226 167.729 119.741C171.693 122.52 176.483 123.601 180.752 122.466C183.948 121.617 186.797 119.548 188.912 116.699C191.137 113.646 192.433 110.015 192.645 106.243C192.61 102.094 191.258 98.0634 188.785 94.7321C186.518 91.6406 183.229 89.4524 179.502 88.5561C176.138 87.8511 172.636 88.2575 169.524 89.7141C167.828 90.4656 166.245 91.4504 164.822 92.64C162.575 91.387 160.154 90.4763 157.639 89.938C153.624 89.0656 148.375 88.9035 143.013 91.5051C138.959 93.4881 135.596 96.6464 133.363 100.568C131.075 104.575 129.987 109.155 130.229 113.762C130.506 113.647 130.791 113.552 131.082 113.48C132.102 113.219 133.173 113.228 134.189 113.507C134.627 113.627 135.051 113.791 135.455 113.997C135.535 113.82 135.62 113.638 135.71 113.453C135.799 113.272 135.895 113.067 135.996 112.893C136.096 112.72 136.239 112.438 136.359 112.222C136.478 112.006 136.602 111.805 136.725 111.608Z" fill="#ECE7E1" stroke="black" stroke-width="1.5" stroke-miterlimit="10" stroke-linecap="round"/>
<path d="M175.031 141.585C175.39 140.998 175.749 140.38 176.1 139.724C176.451 139.068 176.799 138.381 177.134 137.659C177.859 136.106 178.481 134.507 178.995 132.873C179.432 131.478 179.792 130.061 180.076 128.627C180.751 128.668 181.418 128.798 182.06 129.013C182.89 129.284 183.636 129.766 184.225 130.41C185.511 131.865 185.476 134.081 184.646 136.181C183.816 138.281 182.191 140.268 180.296 141.276C179.34 141.759 178.278 141.992 177.208 141.951C176.47 141.921 175.738 141.797 175.031 141.585Z" fill="#F2B3C1" stroke="black" stroke-width="1.5" stroke-miterlimit="10" stroke-linecap="round"/>
<path d="M302.805 198.342C303.048 197.408 303.191 196.412 303.361 195.455C303.481 194.579 303.673 193.714 303.932 192.869C304.407 191.498 304.959 189.827 305.808 188.476C306.657 187.125 307.8 186.102 309.452 186.029C309.452 186.029 310.15 186.002 310.772 186.982C311.393 187.963 311.93 189.954 311.617 194C311.406 196.673 310.9 199.316 310.108 201.878C309.314 204.444 308.249 206.918 306.931 209.258L303.5 215.388L300.064 221.51C299.709 222.145 299.434 222.822 299.246 223.525C299.059 224.228 298.973 224.955 298.991 225.683C298.966 226.69 299.291 227.675 299.91 228.47C300.574 229.242 301.682 229.697 303.469 229.535C302.685 230.617 302.024 231.782 301.496 233.009C300.724 234.893 300.338 237.077 301.99 238.27C302.683 238.819 303.552 239.093 304.434 239.042C305.916 238.949 307.908 237.907 309.965 234.105C309.965 234.105 310.969 236.035 312.69 236.726C314.412 237.417 316.84 236.834 319.696 231.805C320.067 232.332 320.586 232.737 321.187 232.971C321.788 233.204 322.444 233.255 323.074 233.117C325.255 232.619 328.424 229.805 332.373 220.549C332.923 219.262 333.489 217.976 334.071 216.689C334.652 215.402 335.242 214.127 335.839 212.864C337.769 208.772 340.571 201.546 340.988 193.745C341.405 185.944 339.421 177.568 331.724 171.172C330.046 169.767 328.159 168.632 326.131 167.81C324.108 166.99 321.958 166.532 319.777 166.455C316.292 166.33 312.847 167.239 309.876 169.068C306.402 171.191 302.928 174.858 299.929 180.941C298.804 183.272 297.841 185.677 297.046 188.14C295.764 192.135 294.803 196.929 296.085 200.106C296.385 200.859 296.945 201.48 297.663 201.855C298.016 202.042 298.403 202.158 298.8 202.193C299.198 202.229 299.599 202.185 299.979 202.063L300.103 202.021L300.226 201.975C300.923 201.684 301.512 201.184 301.909 200.542C302.32 199.86 302.623 199.118 302.805 198.342Z" fill="#F2B3C1" stroke="black" stroke-width="1.5" stroke-miterlimit="10" stroke-linecap="round"/>
<path d="M316.4 204.893C315.314 207.494 314.104 210.18 312.771 212.949C311.432 215.712 309.957 218.549 308.336 221.441C307.533 222.874 306.725 224.265 305.912 225.613C305.098 226.96 304.283 228.273 303.469 229.539" stroke="black" stroke-width="1.5" stroke-miterlimit="10" stroke-linecap="round"/>
<path d="M323.009 208.282C323.009 208.282 320.758 213.265 317.991 218.982C315.223 224.698 311.985 231.16 309.958 234.105" stroke="black" stroke-width="1.5" stroke-miterlimit="10" stroke-linecap="round"/>
<path d="M329.216 211.455L324.456 221.63L319.697 231.805" stroke="black" stroke-width="1.5" stroke-miterlimit="10" stroke-linecap="round"/>
<path d="M235.896 101.85C236.282 109.485 233.966 116.518 229.948 121.744C225.929 126.971 220.167 130.348 213.643 130.673C207.12 130.997 201.056 128.194 196.536 123.4C192.016 118.606 189.024 111.82 188.646 104.193C188.267 96.5656 190.576 89.5249 194.594 84.2946C198.612 79.0643 204.375 75.6907 210.899 75.3664C217.422 75.0422 223.482 77.8446 228.006 82.6387C232.53 87.4328 235.518 94.211 235.896 101.85Z" fill="#F2B3C1" stroke="black" stroke-width="1.5" stroke-miterlimit="10" stroke-linecap="round"/>
<path d="M214.813 102.95C214.828 103.281 214.729 103.607 214.531 103.872C214.333 104.138 214.05 104.327 213.728 104.407C213.407 104.487 213.068 104.453 212.769 104.311C212.47 104.17 212.229 103.929 212.087 103.629C211.946 103.33 211.912 102.991 211.993 102.67C212.073 102.349 212.262 102.065 212.528 101.868C212.794 101.67 213.119 101.571 213.45 101.587C213.781 101.603 214.096 101.732 214.342 101.954C214.482 102.081 214.596 102.234 214.676 102.405C214.757 102.576 214.803 102.761 214.813 102.95Z" fill="#040400"/>
<path d="M199.43 107.736C199.437 107.926 199.407 108.115 199.34 108.292C199.274 108.47 199.173 108.632 199.044 108.771C198.885 108.946 198.686 109.08 198.464 109.16C198.242 109.239 198.003 109.263 197.769 109.229C197.535 109.194 197.314 109.103 197.124 108.962C196.934 108.821 196.782 108.636 196.681 108.423C196.58 108.209 196.533 107.974 196.544 107.738C196.556 107.502 196.626 107.272 196.747 107.07C196.869 106.867 197.038 106.698 197.241 106.576C197.444 106.455 197.673 106.385 197.909 106.374C198.098 106.364 198.286 106.391 198.464 106.455C198.642 106.518 198.805 106.616 198.945 106.742C199.085 106.869 199.198 107.022 199.279 107.192C199.36 107.363 199.406 107.548 199.414 107.736H199.43Z" fill="#040400"/>
<path d="M206.588 111.554L204.986 110.678L203.388 109.802C203.367 109.79 203.349 109.773 203.336 109.753C203.323 109.733 203.316 109.71 203.314 109.686C203.315 109.663 203.321 109.64 203.332 109.62C203.344 109.599 203.36 109.582 203.38 109.57L204.881 108.798L206.387 108.026L205.352 103.861L204.333 99.7386" stroke="black" stroke-width="1.5" stroke-miterlimit="10" stroke-linecap="round"/>
<path d="M214.277 112.627C214.187 113.484 213.859 114.3 213.331 114.981C212.779 115.7 212.056 116.27 211.228 116.637C210.322 117.042 209.326 117.198 208.34 117.089C207.395 116.991 206.5 116.618 205.766 116.016" stroke="black" stroke-width="1.5" stroke-miterlimit="10" stroke-linecap="round"/>
<path d="M208.999 97.6232L213.376 97.1021L217.754 96.5733" stroke="black" stroke-width="1.5" stroke-miterlimit="10" stroke-linecap="round"/>
<path d="M200.574 99.8078L196.563 101.78L192.549 103.753" stroke="black" stroke-width="1.5" stroke-miterlimit="10" stroke-linecap="round"/>
<path d="M235.572 108.312C235.684 107.59 235.777 106.818 235.843 105.996C235.908 105.173 235.947 104.309 235.947 103.398C235.946 100.511 235.557 97.6381 234.789 94.8557C235.53 94.6663 236.293 94.5767 237.059 94.5894C238.1 94.5889 239.119 94.8979 239.984 95.4772C241.602 96.612 242.374 98.7736 242.339 100.989C242.304 103.205 241.463 105.478 239.853 106.837C239.177 107.398 238.387 107.805 237.537 108.03C236.896 108.203 236.236 108.298 235.572 108.312Z" fill="#F2B3C1" stroke="black" stroke-width="1.5" stroke-miterlimit="10" stroke-linecap="round"/>
<path d="M224.463 107.281C224.506 108.156 224.245 109.019 223.724 109.723C223.202 110.427 222.453 110.929 221.603 111.142C220.753 111.356 219.856 111.268 219.063 110.893C218.271 110.519 217.633 109.882 217.258 109.09C216.883 108.298 216.795 107.401 217.007 106.551C217.22 105.701 217.721 104.951 218.424 104.429C219.128 103.906 219.991 103.645 220.866 103.687C221.741 103.73 222.574 104.075 223.224 104.664C223.593 104.997 223.892 105.399 224.105 105.849C224.317 106.298 224.439 106.784 224.463 107.281Z" fill="#FF6406" stroke="#070707" stroke-width="1.5" stroke-miterlimit="10" stroke-linecap="round"/>
<path d="M201.778 115.275C201.822 116.15 201.561 117.013 201.039 117.717C200.518 118.421 199.768 118.923 198.919 119.136C198.069 119.35 197.171 119.262 196.379 118.888C195.587 118.513 194.949 117.876 194.574 117.084C194.199 116.292 194.11 115.395 194.323 114.545C194.536 113.695 195.036 112.945 195.74 112.423C196.444 111.901 197.307 111.639 198.182 111.682C199.057 111.724 199.89 112.069 200.539 112.658C200.908 112.991 201.208 113.393 201.42 113.843C201.633 114.292 201.755 114.779 201.778 115.275Z" fill="#FF6406" stroke="#070707" stroke-width="1.5" stroke-miterlimit="10" stroke-linecap="round"/>
<path d="M191.213 115.584C190.955 114.948 190.706 114.279 190.464 113.577C190.224 112.874 189.993 112.137 189.78 111.369C188.937 108.305 188.462 105.15 188.368 101.973C187.695 101.907 187.016 101.927 186.349 102.035C185.485 102.167 184.669 102.52 183.983 103.062C182.473 104.282 182.145 106.474 182.62 108.682C183.095 110.89 184.373 113.113 186.094 114.399C186.961 115.028 187.973 115.426 189.035 115.557C189.757 115.656 190.489 115.665 191.213 115.584Z" fill="#F2B3C1" stroke="black" stroke-width="1.5" stroke-miterlimit="10" stroke-linecap="round"/>
<path d="M188.368 101.973C188.368 101.973 192.171 101.769 196.779 99.1942C201.388 96.6196 206.815 91.6749 210.027 82.1909C211.54 85.2172 213.574 87.9533 216.037 90.2738C220.063 94.0218 226.135 97.1909 234.314 94.8672C234.484 94.8208 234.665 94.7784 234.858 94.7436C235.051 94.7089 235.244 94.6742 235.472 94.6471C235.771 94.6118 236.071 94.5924 236.371 94.5892C236.649 94.5892 236.908 94.5892 237.143 94.6124C237.297 91.8063 237.077 88.9923 236.491 86.2439C235.634 82.2604 233.789 77.6014 229.863 73.8109C224.845 68.9434 217.801 66.7664 210.807 67.1253C203.812 67.4843 196.845 70.3793 191.939 75.6559C187.122 80.8399 185.535 87.0931 185.196 92.2269C184.971 95.5235 185.218 98.8354 185.929 102.062C186.078 102.022 186.228 101.99 186.381 101.966C186.554 101.935 186.729 101.913 186.905 101.9C187.173 101.881 187.441 101.881 187.708 101.9C187.93 101.912 188.15 101.936 188.368 101.973Z" fill="#040400" stroke="#040400" stroke-width="1.5" stroke-miterlimit="10"/>
<path d="M234.811 54.2833C234.811 58.1037 233.486 61.8059 231.063 64.7591C228.639 67.7123 225.267 69.7338 221.52 70.4791C217.773 71.2244 213.883 70.6475 210.514 68.8466C207.145 67.0456 204.504 64.1322 203.042 60.6026C201.58 57.073 201.387 53.1457 202.496 49.4898C203.605 45.8339 205.947 42.6757 209.124 40.5532C212.3 38.4307 216.115 37.4753 219.917 37.8497C223.719 38.2242 227.273 39.9054 229.974 42.6068C231.51 44.1384 232.728 45.9584 233.558 47.9623C234.388 49.9662 234.814 52.1143 234.811 54.2833Z" fill="#040400" stroke="#040400" stroke-width="1.5" stroke-miterlimit="10"/>
<path d="M149.841 125.257C149.762 125.63 149.833 126.018 150.039 126.339C150.245 126.659 150.57 126.885 150.942 126.967C151.22 127.028 151.51 127.005 151.775 126.901C152.04 126.797 152.269 126.616 152.431 126.382C152.594 126.148 152.683 125.871 152.688 125.586C152.693 125.301 152.614 125.021 152.46 124.782C152.306 124.542 152.084 124.353 151.822 124.24C151.561 124.126 151.272 124.093 150.992 124.144C150.711 124.195 150.452 124.328 150.248 124.526C150.043 124.724 149.901 124.979 149.841 125.257Z" fill="#040400"/>
<path d="M167.369 130.229C167.289 130.601 167.36 130.989 167.566 131.309C167.773 131.629 168.097 131.854 168.47 131.935C168.654 131.976 168.844 131.98 169.029 131.946C169.215 131.913 169.392 131.844 169.551 131.742C169.71 131.64 169.846 131.508 169.954 131.353C170.061 131.198 170.136 131.023 170.176 130.838C170.218 130.653 170.222 130.462 170.19 130.275C170.157 130.088 170.088 129.91 169.986 129.75C169.885 129.59 169.752 129.452 169.597 129.343C169.441 129.235 169.265 129.158 169.08 129.118C168.895 129.078 168.703 129.075 168.517 129.109C168.33 129.143 168.152 129.213 167.993 129.317C167.834 129.42 167.697 129.554 167.59 129.71C167.483 129.867 167.408 130.043 167.369 130.229Z" fill="#040400"/>
<path d="M159.143 133.027L160.772 132.205L162.405 131.387C162.425 131.376 162.443 131.36 162.456 131.34C162.469 131.321 162.476 131.298 162.478 131.275C162.48 131.25 162.476 131.226 162.465 131.204C162.454 131.182 162.437 131.164 162.416 131.151L160.961 130.314L159.487 129.476L160.645 125.388L161.803 121.304" stroke="black" stroke-width="1.5" stroke-miterlimit="10" stroke-linecap="round"/>
<path d="M151.13 137.416C151.331 138.255 151.761 139.021 152.373 139.628C153.018 140.271 153.815 140.742 154.689 140.998C155.639 141.281 156.648 141.308 157.611 141.075C158.535 140.855 159.374 140.371 160.028 139.682" stroke="black" stroke-width="1.5" stroke-miterlimit="10" stroke-linecap="round"/>
<path d="M157.102 116.398L152.694 116.182L148.29 115.966" stroke="black" stroke-width="1.5" stroke-miterlimit="10" stroke-linecap="round"/>
<path d="M168.612 120.853L172.634 122.81L176.652 124.767" stroke="black" stroke-width="1.5" stroke-miterlimit="10" stroke-linecap="round"/>
<path d="M141.937 131.167C141.75 132.024 141.867 132.919 142.267 133.699C142.666 134.48 143.324 135.098 144.129 135.448C144.933 135.798 145.834 135.858 146.677 135.618C147.521 135.378 148.255 134.853 148.755 134.133C149.255 133.412 149.49 132.54 149.419 131.666C149.348 130.792 148.976 129.969 148.367 129.338C147.757 128.708 146.948 128.308 146.077 128.207C145.206 128.106 144.326 128.31 143.589 128.785C142.744 129.329 142.15 130.185 141.937 131.167Z" fill="#FF6406" stroke="#070707" stroke-width="1.5" stroke-miterlimit="10" stroke-linecap="round"/>
<path d="M164.39 137.694C164.205 138.549 164.322 139.442 164.721 140.221C165.12 140.999 165.777 141.616 166.58 141.964C167.382 142.313 168.281 142.373 169.122 142.133C169.964 141.894 170.696 141.37 171.195 140.651C171.694 139.932 171.928 139.062 171.858 138.19C171.787 137.318 171.416 136.497 170.809 135.868C170.201 135.238 169.394 134.839 168.525 134.737C167.656 134.636 166.778 134.839 166.042 135.312C165.623 135.581 165.262 135.93 164.979 136.339C164.695 136.747 164.495 137.208 164.39 137.694Z" fill="#FF6406" stroke="#070707" stroke-width="1.5" stroke-miterlimit="10" stroke-linecap="round"/>
<path d="M173.589 126.963L171.327 126.326L169.069 125.689C168.429 125.51 167.76 125.457 167.1 125.535C166.439 125.613 165.8 125.821 165.22 126.149C164.809 126.377 164.432 126.663 164.101 126.998C163.777 127.331 163.501 127.706 163.279 128.113L160.963 127.399L158.647 126.689C158.77 125.502 158.471 124.309 157.801 123.32C157.132 122.332 156.136 121.611 154.987 121.285L152.085 120.463L149.19 119.645C147.906 119.313 146.545 119.497 145.395 120.157C144.246 120.817 143.402 121.901 143.042 123.177C142.683 124.452 142.837 125.818 143.473 126.981C144.108 128.144 145.174 129.012 146.441 129.399L149.336 130.217L152.227 131.032C152.434 131.089 152.644 131.135 152.857 131.167C153.51 131.264 154.176 131.233 154.817 131.074C155.258 130.965 155.683 130.797 156.08 130.576C156.532 130.323 156.942 130.001 157.296 129.623C157.646 129.248 157.938 128.823 158.16 128.36L160.43 129.059L162.696 129.754C162.601 130.314 162.601 130.885 162.696 131.445C162.796 132.007 162.989 132.548 163.267 133.047C163.593 133.626 164.03 134.137 164.552 134.548C165.073 134.961 165.672 135.266 166.312 135.444L168.574 136.08L170.836 136.717C171.041 136.777 171.25 136.822 171.462 136.852C171.668 136.884 171.875 136.902 172.083 136.907C173.317 136.936 174.519 136.515 175.464 135.721C176.409 134.928 177.032 133.817 177.216 132.597C177.4 131.376 177.133 130.131 176.464 129.094C175.796 128.057 174.772 127.299 173.585 126.963H173.589ZM155.227 129.059C154.843 129.266 154.424 129.397 153.991 129.445C153.556 129.495 153.116 129.46 152.694 129.341L149.803 128.538L146.908 127.724C146.059 127.484 145.339 126.917 144.907 126.147C144.476 125.376 144.368 124.466 144.608 123.617C144.847 122.767 145.415 122.047 146.185 121.616C146.955 121.184 147.865 121.076 148.715 121.316L151.61 122.13L154.501 122.945C154.923 123.062 155.318 123.261 155.662 123.531C156.007 123.801 156.295 124.137 156.51 124.518C156.726 124.9 156.863 125.32 156.916 125.755C156.969 126.189 156.935 126.63 156.817 127.052C156.699 127.473 156.499 127.867 156.226 128.21C155.953 128.557 155.613 128.846 155.227 129.059ZM175.418 132.745C175.18 133.597 174.614 134.319 173.844 134.754C173.074 135.188 172.163 135.299 171.311 135.061L169.069 134.409L166.807 133.772C166.386 133.655 165.992 133.456 165.649 133.186C165.305 132.915 165.019 132.579 164.807 132.197C164.591 131.817 164.453 131.397 164.402 130.962C164.352 130.527 164.387 130.087 164.506 129.665C164.623 129.244 164.822 128.85 165.093 128.507C165.366 128.164 165.702 127.877 166.085 127.662C166.855 127.231 167.764 127.123 168.613 127.361L170.875 127.998L173.137 128.635C173.559 128.752 173.954 128.952 174.299 129.222C174.644 129.493 174.932 129.828 175.147 130.21C175.362 130.592 175.5 131.012 175.552 131.447C175.605 131.882 175.571 132.323 175.453 132.745H175.418Z" fill="#84A1E5" stroke="#070707" stroke-width="1.5" stroke-miterlimit="10" stroke-linecap="round"/>
<path d="M113.974 267.93C113.602 267.48 113.178 267.076 112.711 266.726C112.022 266.192 111.236 265.799 110.395 265.568C108.839 265.186 107.198 265.368 105.763 266.081C104.851 266.514 104.01 267.084 103.27 267.772L103.073 267.957L102.872 268.142L93.2995 276.762L83.7151 285.389L83.3754 285.678L83.0319 285.964C82.3094 286.575 81.7165 287.325 81.2883 288.169C80.86 289.013 80.605 289.934 80.5383 290.878C80.4526 291.797 80.5603 292.724 80.8545 293.598C81.1488 294.473 81.623 295.277 82.2466 295.957C82.8703 296.637 83.6295 297.18 84.4755 297.549C85.3214 297.918 86.2353 298.105 87.1582 298.1C88.1055 298.12 89.0471 297.95 89.9275 297.599C90.8079 297.249 91.6093 296.727 92.2843 296.062L92.6008 295.741L92.9212 295.429L102.39 286.724L111.855 278.016C112.659 277.259 113.36 276.398 113.939 275.457C114.827 274.002 115.552 272.072 115.024 270.053C114.934 269.719 114.815 269.394 114.668 269.08C114.479 268.673 114.246 268.288 113.974 267.93Z" fill="#ECE7E1" stroke="black" stroke-width="1.5" stroke-miterlimit="10" stroke-linecap="round"/>
<path d="M154.442 191.217C154.384 190.7 154.337 190.167 154.307 189.611C154.276 189.055 154.26 188.48 154.264 187.886C154.271 186.19 154.426 184.498 154.727 182.829C154.977 181.436 155.324 180.062 155.766 178.718C155.177 178.526 154.566 178.412 153.948 178.378C153.149 178.329 152.351 178.487 151.632 178.838C150.041 179.641 149.011 181.47 148.698 183.47C148.385 185.469 148.791 187.646 150.068 189.132C150.72 189.87 151.549 190.429 152.477 190.757C153.11 190.992 153.77 191.146 154.442 191.217Z" fill="#D87D61" stroke="black" stroke-width="1.5" stroke-miterlimit="10" stroke-linecap="round"/>
<path d="M132.537 278.437L127.543 273.716L122.548 268.992C121.114 267.908 119.426 267.209 117.646 266.961C114.781 266.602 111.084 267.556 107.799 272.817L101.206 284.15L94.6091 295.483C93.7653 297.042 93.5393 298.861 93.976 300.578C94.1795 301.44 94.5544 302.253 95.0786 302.967C95.6028 303.681 96.2654 304.282 97.0269 304.734C97.7884 305.187 98.6333 305.481 99.5111 305.6C100.389 305.719 101.282 305.66 102.136 305.426C103.053 305.196 103.915 304.783 104.67 304.213C105.424 303.643 106.057 302.926 106.529 302.107L110.809 295.545L115.09 288.983L123.814 283.695L132.537 278.437Z" fill="#ECE7E1" stroke="black" stroke-width="1.5" stroke-miterlimit="10" stroke-linecap="round"/>
<path d="M79.7859 233.87C79.7859 234.779 79.4707 235.661 78.8939 236.364C78.317 237.068 77.5142 237.549 76.6222 237.727C75.7301 237.905 74.8039 237.769 74.0013 237.341C73.1987 236.912 72.5693 236.219 72.2203 235.379C71.8712 234.539 71.8241 233.604 72.087 232.733C72.3499 231.863 72.9065 231.11 73.662 230.603C74.4175 230.097 75.3253 229.867 76.2307 229.955C77.1361 230.042 77.9833 230.441 78.6279 231.083C78.9959 231.447 79.2878 231.882 79.4866 232.36C79.6854 232.838 79.7871 233.352 79.7859 233.87Z" fill="#040400" stroke="#040400" stroke-width="1.5" stroke-miterlimit="10"/>
<path d="M114.553 289.836L116.587 286.543L118.625 283.251" stroke="black" stroke-width="1.5" stroke-miterlimit="10" stroke-linecap="round"/>
<path d="M284.937 230.546C284.937 230.16 283.945 229.809 282.301 229.535C280.127 229.214 277.935 229.034 275.739 228.998C275.708 226.81 275.479 224.63 275.055 222.483C274.696 220.842 274.226 219.85 273.708 219.85C273.191 219.85 272.716 220.842 272.357 222.483C271.936 224.63 271.707 226.811 271.674 228.998C269.477 229.034 267.285 229.214 265.112 229.535C263.468 229.809 262.476 230.16 262.476 230.546C262.476 230.932 263.468 231.284 265.112 231.558C267.285 231.879 269.477 232.058 271.674 232.094C271.707 234.282 271.936 236.463 272.357 238.61C272.716 240.25 273.191 241.242 273.708 241.242C274.226 241.242 274.696 240.25 275.055 238.61C275.479 236.463 275.708 234.282 275.739 232.094C277.935 232.058 280.127 231.879 282.301 231.558C283.945 231.284 284.937 230.932 284.937 230.546Z" fill="url(#paint0_linear_115_19)" stroke="black" stroke-width="1.5" stroke-miterlimit="10" stroke-linecap="round"/>
<path d="M74.112 122.586C74.112 122.115 72.9 121.683 70.8928 121.351C68.2415 120.957 65.5671 120.739 62.8871 120.698C62.8459 118.028 62.5669 115.367 62.0534 112.747C61.6133 110.743 61.0382 109.531 60.409 109.531C59.7798 109.531 59.2008 110.743 58.7608 112.747C58.2473 115.367 57.9683 118.028 57.927 120.698C55.247 120.739 52.5726 120.957 49.9214 121.351C47.9142 121.683 46.7021 122.123 46.7021 122.586C46.7021 123.049 47.9142 123.485 49.9214 123.821C52.564 124.21 55.2292 124.427 57.9 124.469C57.941 127.139 58.22 129.801 58.7338 132.421C59.1738 134.424 59.7489 135.636 60.382 135.636C61.015 135.636 61.5863 134.424 62.0264 132.421C62.5401 129.801 62.8191 127.139 62.8601 124.469C65.5399 124.428 68.2142 124.211 70.8657 123.821C72.8807 123.485 74.112 123.053 74.112 122.586Z" fill="url(#paint1_linear_115_19)" stroke="black" stroke-width="1.5" stroke-miterlimit="10" stroke-linecap="round"/>
<path d="M294 92.8099C290.29 93.5819 288.009 94.3848 286.461 95.9288C284.913 97.4728 284.111 99.7579 283.342 103.467C283.327 103.55 283.284 103.625 283.219 103.679C283.155 103.733 283.073 103.762 282.989 103.762C282.905 103.762 282.824 103.733 282.759 103.679C282.695 103.625 282.651 103.55 282.636 103.467C281.864 99.7579 281.061 97.4728 279.517 95.9288C277.973 94.3848 275.692 93.5742 271.979 92.8099C271.896 92.7948 271.821 92.7513 271.767 92.6867C271.713 92.6222 271.684 92.5408 271.684 92.4567C271.684 92.3726 271.713 92.2912 271.767 92.2267C271.821 92.1621 271.896 92.1185 271.979 92.1035C275.692 91.3315 277.973 90.5286 279.517 88.9846C281.061 87.4406 281.872 85.1555 282.636 81.446C282.651 81.3633 282.695 81.2885 282.759 81.2346C282.824 81.1808 282.905 81.1513 282.989 81.1513C283.073 81.1513 283.155 81.1808 283.219 81.2346C283.284 81.2885 283.327 81.3633 283.342 81.446C284.114 85.1555 284.917 87.4368 286.461 88.9846C288.005 90.5325 290.29 91.3392 294 92.1035C294.083 92.1185 294.157 92.1621 294.211 92.2267C294.265 92.2912 294.295 92.3726 294.295 92.4567C294.295 92.5408 294.265 92.6222 294.211 92.6867C294.157 92.7513 294.083 92.7948 294 92.8099Z" fill="url(#paint2_linear_115_19)" stroke="black" stroke-width="1.5" stroke-miterlimit="10" stroke-linecap="round"/>
<path d="M51.4805 144.14C49.342 144.6 48.0065 145.097 47.0878 146.016C46.1691 146.935 45.6712 148.27 45.2118 150.409C45.1987 150.472 45.1641 150.529 45.1139 150.57C45.0636 150.611 45.0007 150.634 44.9358 150.634C44.871 150.634 44.8081 150.611 44.7578 150.57C44.7075 150.529 44.6729 150.472 44.6598 150.409C44.2005 148.27 43.7026 146.935 42.7839 146.016C41.8652 145.097 40.5296 144.6 38.3912 144.14C38.3277 144.127 38.2706 144.092 38.2296 144.042C38.1886 143.992 38.1663 143.929 38.1663 143.864C38.1663 143.799 38.1886 143.736 38.2296 143.686C38.2706 143.636 38.3277 143.601 38.3912 143.588C40.5296 143.129 41.8652 142.631 42.7839 141.712C43.7026 140.794 44.2005 139.458 44.6598 137.32C44.6729 137.256 44.7075 137.199 44.7578 137.158C44.8081 137.117 44.871 137.095 44.9358 137.095C45.0007 137.095 45.0636 137.117 45.1139 137.158C45.1641 137.199 45.1987 137.256 45.2118 137.32C45.6712 139.458 46.1691 140.794 47.0878 141.712C48.0065 142.631 49.342 143.129 51.4805 143.588C51.544 143.601 51.6011 143.636 51.6421 143.686C51.683 143.736 51.7054 143.799 51.7054 143.864C51.7054 143.929 51.683 143.992 51.6421 144.042C51.6011 144.092 51.544 144.127 51.4805 144.14Z" fill="url(#paint3_linear_115_19)" stroke="black" stroke-width="1.5" stroke-miterlimit="10" stroke-linecap="round"/>
<path d="M284.938 253.035C283.955 253.036 283.002 252.697 282.242 252.074C281.481 251.451 280.96 250.584 280.768 249.62C280.576 248.656 280.723 247.656 281.186 246.789C281.649 245.922 282.399 245.242 283.307 244.866C284.215 244.49 285.225 244.44 286.166 244.726C287.106 245.012 287.919 245.615 288.464 246.433C289.009 247.25 289.254 248.232 289.157 249.21C289.059 250.188 288.626 251.102 287.93 251.796C287.135 252.588 286.06 253.033 284.938 253.035ZM284.938 246.886C284.491 246.885 284.058 247.039 283.712 247.322C283.366 247.605 283.129 248 283.041 248.438C282.954 248.876 283.021 249.332 283.232 249.726C283.443 250.12 283.784 250.429 284.197 250.6C284.61 250.77 285.07 250.792 285.497 250.662C285.925 250.531 286.294 250.256 286.541 249.884C286.789 249.512 286.899 249.065 286.854 248.62C286.809 248.176 286.61 247.76 286.293 247.445C286.115 247.267 285.904 247.126 285.671 247.03C285.439 246.934 285.19 246.885 284.938 246.886Z" fill="url(#paint4_linear_115_19)" stroke="black" stroke-width="1.5" stroke-miterlimit="10" stroke-linecap="round"/>
<path d="M113.345 241.315C113.642 241.439 113.955 241.563 114.29 241.678C114.626 241.794 114.974 241.91 115.34 242.018C115.865 242.169 116.371 242.292 116.85 242.404C117.328 242.516 117.788 242.578 118.212 242.632" fill="#ECE7E1"/>
<path d="M113.345 241.315C113.642 241.439 113.955 241.563 114.29 241.678C114.626 241.794 114.974 241.91 115.34 242.018C115.865 242.169 116.371 242.292 116.85 242.404C117.328 242.516 117.788 242.578 118.212 242.632" stroke="black" stroke-width="1.5" stroke-miterlimit="10" stroke-linecap="round"/>
<path d="M241.25 220.819C243.77 213.42 245.843 207.344 247.283 203.121L249.533 196.517L252.235 199.937C254.551 202.866 258.797 208.239 266.517 218.013L269.177 195.2L271.832 172.388C271.604 174.924 271.023 177.415 270.107 179.791C268.464 184.211 265.611 188.079 261.874 190.954C260.078 192.333 258.111 193.473 256.022 194.343C252.459 195.852 248.565 196.403 244.724 195.941C238.798 195.208 234.414 192.197 231.449 189.244C229.552 187.371 227.941 185.229 226.667 182.887C228.782 188.438 230.902 193.986 233.028 199.531C235.153 205.077 237.291 210.62 239.439 216.16C239.671 216.755 240.007 217.619 240.339 218.476C240.671 219.333 241.006 220.221 241.25 220.819Z" fill="#DBCAF4" stroke="black" stroke-width="1.5" stroke-miterlimit="10" stroke-linecap="round"/>
<path d="M289.655 273.253L284.552 296.34L279.449 319.427" fill="#DBCAF4"/>
<path d="M289.655 273.253L284.552 296.34L279.449 319.427" stroke="black" stroke-width="1.5" stroke-miterlimit="10" stroke-linecap="round"/>
<path d="M159.07 107.47C159.17 107.374 159.271 107.27 159.375 107.158C159.479 107.046 159.575 106.934 159.68 106.81C159.92 106.519 160.141 106.214 160.344 105.895C160.516 105.622 160.673 105.34 160.815 105.05" stroke="#070707" stroke-width="1.5" stroke-miterlimit="10" stroke-linecap="round"/>
<path d="M61.4817 221.896C61.1498 220.989 60.8989 220.004 60.6518 219.07C60.4451 218.208 60.1702 217.364 59.8297 216.546C59.2314 215.226 58.5211 213.612 57.5484 212.35C56.5757 211.088 55.3405 210.173 53.6884 210.258C53.6884 210.258 52.9897 210.293 52.4648 211.331C51.9398 212.369 51.5924 214.419 52.2834 218.395C52.7468 221.043 53.5015 223.632 54.5337 226.115C55.5685 228.594 56.8624 230.956 58.3937 233.163L62.3888 238.953L66.3839 244.743C66.802 245.34 67.1406 245.989 67.3914 246.673C67.645 247.355 67.7984 248.07 67.8469 248.796C67.9679 249.797 67.7388 250.809 67.1984 251.66C66.604 252.475 65.5502 253.046 63.7553 253.058C64.638 254.061 65.407 255.159 66.0481 256.331C67.0015 258.134 67.5921 260.272 66.0481 261.615C65.4111 262.226 64.5715 262.58 63.6897 262.611C62.2074 262.657 60.1269 261.808 57.7182 258.218C57.7182 258.218 56.8999 260.241 55.2517 261.083C53.6035 261.924 51.1292 261.58 47.8135 256.837C47.4933 257.396 47.0153 257.848 46.4392 258.137C45.8632 258.426 45.2147 258.539 44.5749 258.462C42.3554 258.172 38.9355 255.671 34.1298 246.828C33.4633 245.592 32.7788 244.366 32.0763 243.149C31.3776 241.933 30.6674 240.717 29.9571 239.509C27.6643 235.614 24.1671 228.701 23.0284 220.981C21.8897 213.261 23.0632 204.727 30.1115 197.632C31.6496 196.08 33.4208 194.777 35.3611 193.772C37.296 192.764 39.393 192.104 41.5564 191.823C45.0171 191.363 48.5361 191.94 51.6696 193.479C55.3328 195.262 59.1503 198.585 62.6938 204.36C64.035 206.573 65.2216 208.877 66.245 211.254C67.8971 215.114 69.306 219.792 68.3294 223.085C68.1021 223.862 67.6036 224.532 66.9243 224.972C66.592 225.191 66.2196 225.341 65.8286 225.415C65.4377 225.489 65.036 225.484 64.6469 225.401L64.5196 225.37L64.3922 225.331C63.6725 225.108 63.0408 224.666 62.5857 224.065C62.102 223.407 61.7291 222.674 61.4817 221.896Z" fill="#F2B3C1" stroke="black" stroke-width="1.5" stroke-miterlimit="10" stroke-linecap="round"/>
<path d="M48.5627 229.697C49.8906 232.183 51.3458 234.75 52.9361 237.375C54.5264 239.999 56.2673 242.682 58.151 245.407C59.0902 246.756 60.0269 248.063 60.9611 249.329C61.8952 250.595 62.8332 251.822 63.7634 253.011" stroke="black" stroke-width="1.5" stroke-miterlimit="10" stroke-linecap="round"/>
<path d="M42.3052 233.692C42.3052 233.692 45.0072 238.44 48.2998 243.875C51.5923 249.31 55.4369 255.428 57.7259 258.157" stroke="black" stroke-width="1.5" stroke-miterlimit="10" stroke-linecap="round"/>
<path d="M36.4268 237.436L42.1241 247.117L47.8215 256.798" stroke="black" stroke-width="1.5" stroke-miterlimit="10" stroke-linecap="round"/>
<path d="M89.2776 142.287C90.7521 145.105 92.1996 148.104 93.5815 151.285C94.9634 154.466 96.2835 157.847 97.4994 161.375C101.529 173.151 103.958 185.414 104.721 197.837C105.316 207.487 104.984 217.172 103.729 226.76" stroke="black" stroke-width="1.5" stroke-miterlimit="10" stroke-linecap="round"/>
<path d="M124.573 131.769C124.304 132.331 124.098 132.921 123.96 133.529C123.749 134.448 123.704 135.397 123.828 136.331C124.045 137.879 124.709 139.329 125.739 140.504C126.289 141.148 126.927 141.711 127.634 142.175C127.428 142.873 127.324 143.598 127.325 144.325C127.308 145.637 127.67 146.926 128.37 148.036C129.069 149.146 130.076 150.029 131.267 150.579C132.405 151.111 133.662 151.338 134.914 151.239C134.917 152.002 135.039 152.76 135.277 153.485C135.729 154.979 136.698 156.262 138.01 157.106C139.011 157.739 140.162 158.096 141.346 158.14C142.53 158.184 143.704 157.914 144.75 157.357C144.94 158.053 145.187 158.732 145.491 159.387C145.897 160.263 146.402 161.089 146.996 161.85C147.34 162.291 147.714 162.707 148.115 163.097C148.451 163.425 148.806 163.735 149.177 164.023" fill="#F6C34C"/>
<path d="M124.573 131.769C124.304 132.331 124.098 132.921 123.96 133.529C123.749 134.448 123.704 135.397 123.828 136.331C124.045 137.879 124.709 139.329 125.739 140.504C126.289 141.148 126.927 141.711 127.634 142.175C127.428 142.873 127.324 143.598 127.325 144.325C127.308 145.637 127.67 146.926 128.37 148.036C129.069 149.146 130.076 150.029 131.267 150.579C132.405 151.111 133.662 151.338 134.914 151.239C134.917 152.002 135.039 152.76 135.277 153.485C135.729 154.979 136.698 156.262 138.01 157.106C139.011 157.739 140.162 158.096 141.346 158.14C142.53 158.184 143.704 157.914 144.75 157.357C144.94 158.053 145.187 158.732 145.491 159.387C145.897 160.263 146.402 161.089 146.996 161.85C147.34 162.291 147.714 162.707 148.115 163.097C148.451 163.425 148.806 163.735 149.177 164.023" stroke="#070707" stroke-width="1.5" stroke-miterlimit="10" stroke-linecap="round"/>
<path d="M83.8782 266.753L91.7642 257.142L99.6463 247.53" fill="#F6C34C"/>
<path d="M83.8782 266.753L91.7642 257.142L99.6463 247.53" stroke="#070707" stroke-width="1.5" stroke-miterlimit="10" stroke-linecap="round"/>
<path d="M150.591 143.063C150.863 143.604 151.26 144.072 151.749 144.43C152.556 145.02 153.826 145.429 155.675 144.696" stroke="black" stroke-width="1.5" stroke-miterlimit="10" stroke-linecap="round"/>
<path d="M241.4 191.475C241.859 190.614 242.5 189.865 243.28 189.279C244.082 188.673 245.018 188.271 246.008 188.106C246.999 187.94 248.015 188.017 248.97 188.329C249.951 188.642 250.853 189.161 251.618 189.85" stroke="black" stroke-width="1.5" stroke-miterlimit="10" stroke-linecap="round"/>
<path d="M101.421 297.652C100.973 298.154 100.584 298.706 100.263 299.297C99.7631 300.203 99.4334 301.194 99.29 302.219C99.2093 302.812 99.1925 303.413 99.2398 304.01C99.2763 304.466 99.3486 304.919 99.456 305.365" stroke="black" stroke-width="1.5" stroke-miterlimit="10" stroke-linecap="round"/>
<path d="M97.0325 296.081C96.5422 296.648 96.1377 297.284 95.832 297.969C95.0997 299.533 94.8485 301.28 95.1102 302.987" stroke="black" stroke-width="1.5" stroke-miterlimit="10" stroke-linecap="round"/>
<path d="M83.5576 297.062C83.6195 296.689 83.7099 296.321 83.8278 295.962C83.9675 295.523 84.1458 295.098 84.3605 294.692C84.8627 293.735 85.5518 292.888 86.387 292.202C86.9336 291.749 87.5307 291.36 88.1665 291.044" stroke="black" stroke-width="1.5" stroke-miterlimit="10" stroke-linecap="round"/>
<path d="M80.9517 293.839C81.0691 293.35 81.2279 292.872 81.4264 292.41C81.7004 291.769 82.0476 291.162 82.4609 290.6C82.9282 289.967 83.4772 289.398 84.0937 288.909C84.5225 288.568 84.9811 288.265 85.464 288.006" stroke="black" stroke-width="1.5" stroke-miterlimit="10" stroke-linecap="round"/>
<defs>
<linearGradient id="paint0_linear_115_19" x1="273.708" y1="219.85" x2="273.708" y2="241.242" gradientUnits="userSpaceOnUse">
<stop offset="0.26" stop-color="#FEC2D9"/>
<stop offset="0.75" stop-color="#A4C2FF"/>
</linearGradient>
<linearGradient id="paint1_linear_115_19" x1="60.3897" y1="109.531" x2="60.3897" y2="135.636" gradientUnits="userSpaceOnUse">
<stop offset="0.31" stop-color="#FEC2D9"/>
<stop offset="0.75" stop-color="#A4C2FF"/>
</linearGradient>
<linearGradient id="paint2_linear_115_19" x1="282.991" y1="81.1565" x2="282.991" y2="103.757" gradientUnits="userSpaceOnUse">
<stop offset="0.31" stop-color="#FEC2D9"/>
<stop offset="0.88" stop-color="#A4C2FF"/>
</linearGradient>
<linearGradient id="paint3_linear_115_19" x1="44.9339" y1="137.096" x2="44.9339" y2="150.633" gradientUnits="userSpaceOnUse">
<stop offset="0.31" stop-color="#FEC2D9"/>
<stop offset="0.75" stop-color="#A4C2FF"/>
</linearGradient>
<linearGradient id="paint4_linear_115_19" x1="284.938" y1="244.57" x2="284.938" y2="253.035" gradientUnits="userSpaceOnUse">
<stop offset="0.22" stop-color="#FEC2D9"/>
<stop offset="0.75" stop-color="#A4C2FF"/>
</linearGradient>
</defs>
</svg>
