<svg width="150" height="65" viewBox="0 0 150 65" fill="none" xmlns="http://www.w3.org/2000/svg">
<path d="M0.376479 52.7071V25.5468H7.09932V52.7071H0.376479ZM0 20.4374V13.8759H7.4758V20.4374H0Z" fill="#3D6EC0"/>
<path d="M14.4676 6.45393C14.4676 2.88952 17.3571 0 20.9215 0H143.546C147.11 0 150 2.88952 150 6.45393V57.5475C150 61.1119 147.11 64.0014 143.546 64.0014H20.9215C17.3571 64.0014 14.4676 61.1119 14.4676 57.5475V6.45393Z" fill="#3D6EC0"/>
<path d="M23.019 52.7071V14.7902H29.0965L43.0262 46.1456H41.3589L55.2886 14.7902H61.3123V52.7071H55.0197V24.5787H56.9559L44.2094 52.7071H40.0681L27.3216 24.5787H29.3116V52.7071H23.019Z" fill="white"/>
<path d="M69.2247 52.7071V25.5468H75.9475V52.7071H69.2247ZM68.8482 20.4374V13.8759H76.324V20.4374H68.8482Z" fill="white"/>
<path d="M83.2481 52.7071V32.3234C83.2481 31.2119 83.2122 30.0825 83.1405 28.9351C83.0688 27.7877 82.9612 26.6583 82.8178 25.5468H89.3255L89.8634 30.9251H89.218C90.0785 29.0247 91.3513 27.5726 93.0365 26.5687C94.7217 25.5289 96.6758 25.009 98.8989 25.009C102.09 25.009 104.492 25.9053 106.106 27.6981C107.719 29.4909 108.526 32.2876 108.526 36.0882V52.7071H101.803V36.4109C101.803 34.2237 101.373 32.664 100.512 31.7318C99.6877 30.7637 98.4327 30.2797 96.7476 30.2797C94.668 30.2797 93.0186 30.9251 91.7995 32.2158C90.5805 33.5066 89.9709 35.2277 89.9709 37.379V52.7071H83.2481Z" fill="white"/>
<path d="M126.196 53.2449C123.829 53.2449 121.732 52.6891 119.903 51.5776C118.11 50.4303 116.712 48.7989 115.708 46.6834C114.704 44.5679 114.202 42.0402 114.202 39.1C114.202 36.1599 114.704 33.6501 115.708 31.5705C116.712 29.455 118.11 27.8415 119.903 26.73C121.732 25.5826 123.829 25.009 126.196 25.009C128.455 25.009 130.445 25.5647 132.166 26.6762C133.922 27.7519 135.088 29.2219 135.661 31.0864H134.962V13.123H141.685V52.7071H135.07V46.9523H135.715C135.142 48.8885 133.976 50.4303 132.219 51.5776C130.498 52.6891 128.49 53.2449 126.196 53.2449ZM128.078 48.0818C130.194 48.0818 131.897 47.3467 133.187 45.8767C134.478 44.3707 135.124 42.1119 135.124 39.1C135.124 36.0882 134.478 33.8473 133.187 32.3772C131.897 30.9071 130.194 30.1721 128.078 30.1721C125.963 30.1721 124.242 30.9071 122.915 32.3772C121.624 33.8473 120.979 36.0882 120.979 39.1C120.979 42.1119 121.624 44.3707 122.915 45.8767C124.242 47.3467 125.963 48.0818 128.078 48.0818Z" fill="white"/>
</svg>
